<?xml version="1.0" encoding="utf-8"?>
<!-- Generator: Adobe Illustrator 27.0.0, SVG Export Plug-In . SVG Version: 6.00 Build 0)  -->
<svg version="1.1" id="Layer_1" xmlns:xodm="http://www.corel.com/coreldraw/odm/2003"
	 xmlns="http://www.w3.org/2000/svg" xmlns:xlink="http://www.w3.org/1999/xlink" x="0px" y="0px" viewBox="0 0 2040 1780.5"
	 style="enable-background:new 0 0 2040 1780.5;" xml:space="preserve">
<style type="text/css">
	.st0{fill-rule:evenodd;clip-rule:evenodd;}
	.st1{fill:#B81A1A;}
	.st2{fill-rule:evenodd;clip-rule:evenodd;fill:#4D4D4D;}
	.st3{fill-rule:evenodd;clip-rule:evenodd;fill:#B81A1A;}
	.st4{fill:#F18B27;}
	.st5{fill:#C25D0B;}
	.st6{fill:#FBCA39;}
	.st7{fill:#DAAF30;}
	.st8{fill:#FFDA73;}
	.st9{fill:#FEB668;}
	.st10{fill-rule:evenodd;clip-rule:evenodd;fill:#E2C59B;}
	.st11{fill-rule:evenodd;clip-rule:evenodd;fill:#B2652D;}
	.st12{fill-rule:evenodd;clip-rule:evenodd;fill:#FFE98C;}
	.st13{fill-rule:evenodd;clip-rule:evenodd;fill:#E44323;}
	.st14{fill-rule:evenodd;clip-rule:evenodd;fill:#78B31D;}
	.st15{fill-rule:evenodd;clip-rule:evenodd;fill:#FFFFFF;}
	.st16{fill-rule:evenodd;clip-rule:evenodd;fill:#CCCCCC;}
	.st17{fill-rule:evenodd;clip-rule:evenodd;fill:#FFB300;}
</style>
<g id="Layer_x5F_1">
	<g id="_1230448707584">
		<circle class="st0" cx="1020" cy="985.5" r="794.9"/>
		<path class="st1" d="M1020,231.5c208.2,0,396.7,84.4,533.1,220.8C1689.6,588.8,1774,777.3,1774,985.5
			c0,208.2-84.4,396.7-220.8,533.1c-136.4,136.4-324.9,220.8-533.1,220.8c-208.2,0-396.7-84.4-533.1-220.8
			C350.4,1382.2,266,1193.7,266,985.5c0-208.2,84.4-396.7,220.8-533.1C623.3,315.9,811.8,231.5,1020,231.5L1020,231.5z
			 M1541.2,464.3c-133.4-133.4-317.7-215.9-521.2-215.9c-203.5,0-387.8,82.5-521.2,215.9S282.9,782,282.9,985.5
			c0,203.5,82.5,387.8,215.9,521.2s317.7,215.9,521.2,215.9c203.5,0,387.8-82.5,521.2-215.9s215.9-317.7,215.9-521.2
			C1757.1,782,1674.6,597.7,1541.2,464.3L1541.2,464.3z"/>
		<path class="st2" d="M1602.4,901.2c4,27.5,6,55.7,6,84.3c0,325-263.5,588.5-588.5,588.5s-588.5-263.5-588.5-588.5
			c0-28.6,2.1-56.8,6-84.3L1602.4,901.2L1602.4,901.2z"/>
		<path class="st0" d="M491.3,644.7v686c-11.1-17-21.4-34.7-30.8-52.8V697.4C469.9,679.3,480.2,661.7,491.3,644.7L491.3,644.7z
			 M1350.2,450.8c3.9,2.4,7.8,4.8,11.6,7.3v1058.9c-10.1,6.5-20.3,12.7-30.8,18.7V450.8L1350.2,450.8L1350.2,450.8z M1403.6,487.7
			c10.5,8.1,20.8,16.5,30.8,25.2v949.5c-10,8.7-20.3,17.1-30.8,25.2V487.7L1403.6,487.7z M1476.2,552.8
			c10.7,11.2,20.9,22.8,30.8,34.8v800.1c-9.8,12-20.1,23.6-30.8,34.8V552.8L1476.2,552.8z M1548.7,644.7
			c11.1,17,21.4,34.7,30.8,52.8v580.4c-9.4,18.1-19.7,35.7-30.8,52.8V644.7L1548.7,644.7z M1289.3,1557.5
			c-10.1,4.8-20.4,9.3-30.8,13.6V450.8h30.8V1557.5L1289.3,1557.5z M1216.8,1586.5c-10.1,3.3-20.4,6.4-30.8,9.2V450.8h30.8V1586.5z
			 M1144.2,1605.6c-10.2,2-20.4,3.8-30.8,5.4V450.8h30.8V1605.6z M1071.7,1615.7c-10.2,0.8-20.5,1.4-30.8,1.7V450.8h30.8V1615.7z
			 M999.1,1617.4c-10.3-0.3-20.6-0.9-30.8-1.7V450.8h30.8V1617.4L999.1,1617.4z M926.6,1610.9c-10.3-1.5-20.6-3.3-30.8-5.4V450.8
			h30.8V1610.9z M854,1595.7c-10.4-2.8-20.6-5.9-30.8-9.2V450.8H854V1595.7z M781.5,1571.1c-10.4-4.3-20.7-8.8-30.8-13.6V450.8h30.8
			V1571.1L781.5,1571.1z M708.9,1535.8c-10.4-5.9-20.7-12.2-30.8-18.7V458.2c3.8-2.5,7.7-4.9,11.6-7.3h19.1V1535.8L708.9,1535.8z
			 M636.4,1487.6c-10.5-8.1-20.8-16.5-30.8-25.2V512.9c10-8.7,20.3-17.1,30.8-25.2V1487.6L636.4,1487.6z M563.8,1422.4
			c-10.7-11.2-20.9-22.8-30.8-34.8V587.6c9.8-12,20.1-23.6,30.8-34.8V1422.4L563.8,1422.4z"/>
		<path class="st0" d="M1604.4,1481.3c-80-28.2-170.8-39.9-254.6-41.2c-134-2.1-268.4,21.7-395.6,63
			c-116.4,37.8-233.7,78.5-351.6,111.3c-85.1,23.7-170,42.1-258.6,44.6l-71.4,2.1l20.5-68.5c8.8-29.5,9.2-60.7,3.3-90.8
			c-10.3-52.2-33.7-106.6-58.9-153.3l-39.8-73.7l83.7-2.4c139.3-4,271.1-33.5,404.9-70.1c159.8-43.7,314.4-92.5,479.4-115.3
			c203.9-28.1,396.8-13.3,595.4,41.2l45.9,12.6l-8.8,46.8c-11.7,62-30.6,130.9-9.5,192.7c4.7,13.8,12.6,28.1,19,41.3
			c22.5,47,35.2,97.9,4.5,144.5c-50.2,76.1-188.5,75.2-268.1,57.4l-84.2-15.6c37.9-32,71.4-59.4,108.4-92.4L1604.4,1481.3
			L1604.4,1481.3z"/>
		<path class="st3" d="M283,1324.1c490.5-14.1,829.8-320.1,1464.5-145.9c-16.7,88.1-31.6,148.6-7.7,218.9
			c12.1,35.5,41.5,73,38.7,112.3c-5.8,81.7-154.6,79.2-223.3,63.9c6-5,11.9-10.2,17.7-15.3c156.6,14.1,210.6-63.2,64.3-119.5
			c-140.2-53.9-391.2-84.4-699,15.6c-292.5,95-440.9,149-595.7,153.5c8.3-27.7,14-67.2,4.5-115.6
			C334.1,1425.7,302.4,1360,283,1324.1L283,1324.1z"/>
		<g>
			<path class="st0" d="M349.8,736.1c11,104,156.7,42.7,232.5,18.7c19.8-5.7,38.7-11,53.7-14.8c15.7-3.7,29-7.1,42.4-10
				c64.8-14,129.6-25.7,248.3-37.5c58.9-4,115.8-4,170.3-2.9c80,3.6,154.8,9.7,222.1,9c38.1,0.7,75.6,1.2,108.5,1.9
				c33.1,1.3,62.1,2.8,83,3.8c46,3.4,80.4,4.7,95.1-5.2c18.5-12.4,11.3-36.3-32-79.9c-12.7-12.5-27.2-26.7-43.7-41.8
				c-16-14.4-33-29.1-50.4-42.6c-21-16.2-59.2-45.5-96.6-74.5c-26.5-19.8-52-39.4-69.8-53.9c-22.6-18.2-50.5-34.9-78-51
				c-32.3-18.4-64.2-36.2-84.2-54.6c-9.8-9-22.9-21-35.4-32.6c-30.2-27.4-57.4-51.9-83.2-71.6c-55.9-41.9-148-92.5-174.2-106.3
				C870.6,29,822.4-12.7,759.4,3.5c-36.2,9.9-64.2,26.4-93.2,48.7c-57.7,14-132.6,132.9-165.4,194.9c-17.5,15.1-21.4,24-31.8,44.3
				c-17.8,34.6-36,79.5-52.8,127.1c-23.7,67.4-44.2,140.5-56,196.8C351.4,657.8,345.9,697.2,349.8,736.1L349.8,736.1z"/>
			<path class="st4" d="M533,663.4c-1.9,21.4,10.4,27.6,28.9,26.5c13.7-0.7,30.9-6.1,47.3-11.2c7.2-2.2,14.6-4.4,22.2-6.5
				c26.5-7,56.5-14.5,91-30.7c21.1-9.7,47.3-4.1,69.9,1.1c20.3,4.8,38.2,9,53.2,3.8c2.7-0.9,6.3-2.2,9.6-3.6
				c18.7-6.8,30.6-11.1,79.4-5.2c29.9,4.2,59.8,8.3,86.8,10.4c28,2.6,53.4,2.8,73.9-1.6c10.5-2.2,19.9-4.8,29.1-7.6
				c23.5-6.6,45.5-12.6,76.4-3.4c0.4,0.2,0.9,0.3,1.4,0.4c47.2,14.8,65.6,20.8,116.8,16c22.9-1.9,41.4,5,58,11.2
				c18.3,7.1,34.5,13.5,53.6,10.5c19.4-2.9,58.2-5.3,99.5,2.2c21.2,4.2,43,11.2,63,21.9c-13.7,4.6-42.1,3.3-79,0.9
				c-20.7-1-49.9-2.3-83.4-3.6c-33.6-0.5-71.3-0.9-108.7-1.5c-66.6,0.8-141.3-5.3-221.2-9.1c-55.6-1-113.8-1.1-173,3
				c-120.3,12.1-185.9,24.2-251.6,38.4c-14.7,3.4-29.4,7.1-42.8,10.5c-17.8,4.5-35.8,9.7-54.6,15.2c-61.1,19.4-199.7,82.8-209-8.2
				C355.6,602,541.2,568,533,663.4L533,663.4z M434.7,766.5c-30-9.7-38-69-18.9-101.4C382.9,696.6,377.6,769.6,434.7,766.5z"/>
			<path class="st5" d="M1593.2,697.7c-13.7,4.6-42.1,3.3-79,0.9c-20.7-1-49.9-2.3-83.4-3.6c-33.6-0.5-71.3-0.9-108.7-1.5
				c-66.6,0.8-141.3-5.3-221.2-9.1c-55.6-1-113.8-1.1-173,3c-120.3,12.1-185.9,24.2-251.6,38.4c-14.7,3.4-29.4,7.1-42.8,10.5
				c-17.8,4.5-35.8,9.7-54.6,15.2c-61.1,19.4-199.7,82.8-209-8.2c-5.5-53.3,17.6-92.7,48.1-115.1c-16.7,22.2-22.6,45-20.7,65.1
				c-13.4,33.9-6.1,75.4,37.3,73.2c-15.3-5.1-24.9-23-28.1-43.6c7,12.2,17.7,21.8,30.3,27.6c17.1,7.9,55.6-4.5,67.2-5.9
				c28-3.4,85.8-26.1,109.9-36c67.6-27.7,106.1-25.3,158.6-31c19.3-2.1,50,0,71.5-10.9c33.9-17.2,74-3.7,141.9,2.6
				c67.9,6.2,106.6-10.4,157.5-11.5c23.9-0.5,52.7,4.8,83.6,8.5c23.9,2.9,66.7,5.5,103.4,6.8c17.1,0.6,55,9.1,70.2,10.2
				C1491.5,689.8,1568.4,700.7,1593.2,697.7L1593.2,697.7z"/>
			<path class="st6" d="M565.4,630.6c9.9-24,12.3-41.1,15-60.7c1.9-13.7,4.1-29,9.3-48.8c9.6-35.7,18.9-52.1,36.9-84
				c9.3-16.3,21-36.6,36.2-65.7c18.8-35.6,27-62.3,33.9-85.3c6.3-20.4,11.5-37.6,23.5-55.7c2.6-3.1,5-6.4,7-9.6
				c5-6.3,11-12.9,18.3-19.8c13.2-12.3,24.7-23.7,35-34.1c14.7-14.4,27-26.5,40.4-36.8c11-8.4,21.7-18.7,28.3-25.4
				c27,14.6,117.7,66.1,172.6,108.3c24.8,19.5,52.2,44.9,82.5,73.2c10.4,9.8,21.1,20.1,36.1,34c22.5,21.4,56,40.4,90,60.3
				c26.8,16.2,54.1,32.9,75.7,50.6c18.4,15.5,44.6,36,71.6,56.8c36.9,29.3,76.1,60.1,98.2,77.5c17.1,13.5,33.8,28.2,49.3,42.7
				c15.2,14.4,30.2,29.1,43.3,42.5c10.9,11.1,18.7,20.1,23.9,27.1c-20.6-10.3-42.3-17-63.4-21.1c-44.1-7.9-85.3-5.1-106-2
				c-12.8,2.2-26.1-3.1-40.9-8.9c-18.9-7.1-40-14.9-68-12.7c-46.1,4.6-63.2-0.9-106.7-14.7c-0.5-0.1-1-0.3-1.4-0.4
				c-37.3-11.1-62.3-4.3-89,3.4c-8.8,2.5-17.9,5.3-27.4,7.3c-17.6,3.8-40.7,3.4-66.5,1.1c-26.8-2.2-55.9-6.2-85-10.3
				c-54.5-6.7-68.4-1.6-90.3,6.6c-2.4,0.9-5.1,1.8-9.1,3.3c-8.1,2.8-22.8-0.8-39.2-4.7c-26.3-6-56.4-12.7-85,0.5
				c-32.3,15.4-60.9,22.6-85.9,29.2c-8.1,2.2-15.7,4.6-22.9,6.8c-14.7,4.6-27.4,8.2-38,8.7C554.1,670.5,561.6,639.8,565.4,630.6
				L565.4,630.6z"/>
			<path class="st7" d="M579.9,572.8c36.4-4.4,74.8-9.7,97-16.3c45.7-13.4,112.4,19.6,158.4,2.8c46-16.8,102.8-8.2,161.1,0.9
				s97.2,9.3,155.8,13.6c58.6,4.3,61.2-5.6,119.3,7.8c58.1,13.4,125.5,20.4,154.3,18.9c28.8-1.5,65.7,6.7,108.5,16.3
				c12,11.5,23.5,23.1,34,33.7c10.9,11.1,18.7,20.1,23.9,27.1c-20.6-10.2-42.3-17-63.4-21.1c-44.1-7.9-85.3-5.1-106-2
				c-12.8,2.2-26.1-3.1-40.9-8.9c-18.9-7.1-40-14.9-68-12.7c-46.1,4.6-63.2-0.9-106.7-14.7c-0.5-0.1-1-0.3-1.4-0.4
				c-37.3-11.1-62.3-4.3-89,3.4c-8.8,2.5-17.9,5.3-27.4,7.3c-17.6,3.8-40.7,3.4-66.5,1.1c-26.8-2.2-55.9-6.2-85-10.3
				c-54.5-6.7-68.4-1.6-90.3,6.6c-2.4,0.9-5.1,1.8-9.1,3.3c-8.1,2.8-22.8-0.8-39.2-4.7c-26.3-6-56.4-12.7-85,0.5
				c-32.3,15.4-60.9,22.6-85.9,29.2c-8.1,2.2-15.7,4.6-22.9,6.8c-14.7,4.6-27.4,8.2-38,8.7c-13.6,0.8-6.1-30-2.3-39.2
				C574.7,607.8,577.4,591.2,579.9,572.8L579.9,572.8z"/>
			<path class="st8" d="M818.6,131.9c0.8-0.7,1.5-1.3,2.3-1.9c11-8.4,21.7-18.7,28.3-25.4c27,14.6,117.7,66.1,172.6,108.3
				c24.8,19.5,52.2,44.9,82.5,73.2c10.4,9.8,21.1,20.1,36.1,34c22.5,21.4,56,40.4,90,60.3c26.8,16.2,54.1,32.9,75.7,50.6
				c18.4,15.5,44.6,36,71.6,56.8c15.5,12.2,31.3,24.6,46.1,36.2c-12.8-4.8-20.6-6.9-35.5-15.9c-14.9-9-44.8-27.4-61.7-39.3
				c-16.9-11.9-0.3-0.1-0.3-0.2c-11.3-8.2,7.5-1.5-41.7-24.8c-49.2-23.3-120.6-66.4-157.1-91.3c-36.6-24.9-41.4-44.1-92.2-82.5
				c-50.8-38.4-50.2-50.5-98.8-72.4S852.9,151.6,818.6,131.9L818.6,131.9z"/>
			<path class="st4" d="M836.8,85.7c-4.7,4.9-16.7,17.5-29.4,27.3c-14.4,11-27.4,23.7-42.6,38.9c-8.1,8-16.9,16.7-27.2,26.7
				c-4.2-23.4-27.5-37.1-56.1-31.1c32.2,6.2,43,34.7,27.6,61c-19.4,24.8-26.2,46.8-34.3,73.5c-6.6,21.7-14.2,46.9-31.6,80.3
				c-22.2-36-74.9-27.4-106.7-3.4c63.9-22.6,109.2,1.7,70.4,69.6c-19,33.8-28.9,51.2-39.4,90.5c-5.8,21.6-7.9,37.5-10,51.8
				c-2.2,15.7-4.1,29.4-10.4,46.9c-28.9-49.3-124.5-35.4-170,25.2c0.9-4.7,1.8-9.6,2.8-14.6c7.2-35.1,17.5-76.5,29.9-119.2
				c16.4-35.5,67.6-43.8,89.7-26.3c-11.3-28-48.3-29.9-78.5-10.9c4.6-14.9,9.5-29.9,14.6-44.5c16.7-49.1,35-95.2,52.5-129.8
				c27.7-54.5,68.7-79.5,124.4-53.2c-13.9-21.6-43.8-28.6-74-19.7c41.2-81.3,82.2-127.5,122.2-155.5c41.4-19.6,81.9-13.5,85.3,20
				c5.8-29.7-13.6-44.7-39.5-46.3c19.2-13.1,35-21.6,58.4-27.8C818.9,0.8,847.5,38.8,836.8,85.7L836.8,85.7z"/>
			<path class="st9" d="M425.2,602.1c-18.3,9.7-35.2,23.4-48.1,40.8c0.9-4.7,1.8-9.6,2.8-14.6c7.2-35.1,17.5-76.5,29.9-119.2
				c8.9-19.4,28.1-30.7,47.3-34.2C443,522.2,432.3,566,425.2,602.1L425.2,602.1z M462.1,459.3c-13.2-0.1-27.7,4.3-40.9,12.7
				c4.6-14.9,9.5-29.9,14.6-44.5c16.7-49.1,35-95.2,52.5-129.8c17.5-34.7,40.5-57.4,69-62.9c-20.1,35.3-38.2,73.1-54,111
				C487.4,384,473.7,422.4,462.1,459.3z M565.5,220.9c-8.7-0.2-17.8,1.1-26.8,3.8c41.2-81.3,82.2-127.5,122.2-155.5
				c20.1-9.5,39.9-13.1,55.4-10.3c-28.1,17.3-57.3,40.6-83,68.8C607.6,155.8,586.1,186.4,565.5,220.9L565.5,220.9z M731.6,50
				c-6.8-4.2-15.5-6.7-24.9-7.2c19.2-13.1,35-21.6,58.4-27.8c19.7-5.3,36-3.5,48.2,3.3C787.4,24.7,759.7,34.9,731.6,50L731.6,50z"/>
			<path class="st5" d="M836.8,85.7c-4.7,4.9-16.7,17.5-29.4,27.3c-14.4,11-27.4,23.7-42.6,38.9c-8.1,8-16.9,16.7-27.2,26.7
				c-1.9-10.9-8.1-19.7-17-25.5C756.1,118.6,795.4,98,817,79s17.6-20.8,19.9-29.5C839.7,60.2,839.7,72.5,836.8,85.7L836.8,85.7z
				 M709.7,164.4c8.4,12.1,8.4,28.4-0.6,44.1c-19.4,24.8-26.2,46.8-34.3,73.5c-6.6,21.7-14.2,46.9-31.6,80.3
				c-7.2-11.5-17.3-18.5-28.9-22c14.6-28.5,22.8-49.6,34.4-75.6C660.3,238.7,676.1,201.1,709.7,164.4L709.7,164.4z M605.8,356.4
				c18.4,10.8,22.2,34.8,1.2,72c-19,33.8-28.9,51.2-39.4,90.5c-5.8,21.6-7.9,37.5-10,51.8c-2.2,15.7-4.1,29.4-10.4,46.9
				c-7.8-13.4-20.7-22.4-36-27c3.7-13.3,5.3-13.8,9.2-43.5c3.9-29.7,28.3-110.3,52.7-140.9C597.4,375.7,596.2,373.8,605.8,356.4
				L605.8,356.4z"/>
			<path class="st10" d="M1095.8,551c6.9,7,25.2-2.5,14.6-24.2c-10.6-21.7-50-39.4-89.6-16.3c-39.6,23.7-24.5,60.7-6.4,64.8
				c18.2,4.2,18.7-9.1,16.6-16.9c-3.2-11.9,20.8-12.7,17.1,7.5c-2.6,14.4-4.3,29.3,17.5,27.3c14.8-1.1,31.3-8.9,27.6-19.3
				c-2.7-7.3-11.9-13.2-17.8-19.5c-12.9-14.2,2.8-24.1,13-13.7C1090.8,543.1,1092.4,547.6,1095.8,551L1095.8,551z M756.1,342.2
				c-6.6-2.5-17,10.2-4,21.5c13,11.5,45.1,11.3,67.2-16.7c22-27.8,1.7-49.3-12.3-46.9c-13.9,2.3-10.9,11.9-7.4,16.7
				c5.4,7.1-11.4,14.9-13.9-0.2c-1.9-10.6-4.6-21.6-19.4-13.4c-10.1,5.5-19.7,16.2-14.3,22.2c3.7,4.2,11.6,5.2,17.5,7.8
				c12.7,5.6,4.1,17.5-5.8,13.7C761.6,346.2,759.3,343.4,756.1,342.2L756.1,342.2z M1003.7,307c-7.2,3.3-18.3-9.4-4.3-22.7
				c14.1-13.3,48.6-15.2,72.4,14c23.7,29.3,1.8,53.1-13.2,50.9c-15-1.9-11.6-12.3-7.9-17.5c5.8-8.1-12.4-15.7-15.1,0.7
				c-2,11.6-4.9,23.5-21,15.8c-10.7-5.3-21.1-15.9-15.3-22.7c4-4.8,12.5-6.5,18.8-9.7c13.7-7,4.5-19.3-6-14.3
				C1009.6,302.4,1007,305.5,1003.7,307L1003.7,307z"/>
			<path class="st11" d="M1516.6,625c0,0-3.2,10.2-8.2,9.5c-8.6-1.1-12.7-3-20.8-5.4c-10.8-3.2-25.2-8.1-31.6-17.8
				c-1.7-2.5,8.9-13.3,13.9-15.8C1477.8,600.7,1513.5,617.8,1516.6,625L1516.6,625z M1109.3,596.3c-0.5-0.9-1.2-4-1.5-6.4
				c6.8-6.4,28.1-25.1,36.3-21.5c5,2.2,9.3,6.8,12.3,11.9c3.2,5.1,4.9,10.1,4.3,12.7c-2,1.5-13.3,2.5-24.9,3.3
				C1124,596.8,1112.6,596.8,1109.3,596.3L1109.3,596.3z M689.1,555.8c0,0,7.8,10.9,4.3,16.4c-3.5,5.5-6.1,10.3-15.3,16.5
				c-9.2,6.3-12.5,9-13,18.4c-0.4,9.3-23.9,9.3-27.4,9.6c-3.5,0.3-6-17.6-5.4-25.2c0.6-7.6,7.7-13.4,18.9-17.1
				c11.1-3.9,20.3-12.2,26.5-15.8C683.9,554.9,689.1,555.8,689.1,555.8L689.1,555.8z M986.7,505.4c0,0-3.3,10.7-8.2,11.4
				c-8.6,1-12.7,0.1-21-0.5c-10.6-0.8-25.1-2-31.6-10.3c-1.5-2.1,9.1-15.2,14.1-18.7C947.9,490.5,983.7,499.1,986.7,505.4
				L986.7,505.4z M887.5,331.1c0,0-9.5,14.2-5.2,20.1c4.1,5.9,7.2,10.9,18,16.7c11,5.8,15,8.5,15.3,19.4c0.5,10.9,28.3,6.5,32.5,6.1
				c4.1-0.3,7-21.5,6.3-30.5c-0.8-9-9.1-14.5-22.2-16.8c-13.2-2.4-24.2-10.8-31.3-13.8C893.7,329.2,887.5,331.1,887.5,331.1
				L887.5,331.1z M1257.7,431.2c0,0,2-12.6-2.8-16c-19.4-13.6-41.3-22.1-60.7-13.5c-2.9,1.2,1.8,14.9,5.2,21.3
				c3.5,6.3,11.1,8.4,21.4,7c10.2-1.2,20.7,2.6,27,3.3C1253.9,433.9,1257.7,431.2,1257.7,431.2L1257.7,431.2z"/>
			<path class="st12" d="M661.9,441.1c-1.7,4.3-15.5,9.8-16.7-0.3C642.6,421,668,425.5,661.9,441.1z M1436.8,631.3
				c-2.9,6.7-12.1,3.5-13-4.5C1421.8,610.9,1439.8,624.6,1436.8,631.3z M976.9,596.2c-2.6,7.3-14.1,3.9-16-3.4
				C957.7,580.9,980.9,584.9,976.9,596.2z M1197.8,593.6c-1.3,3.1-12,4.9-12.9-3C1183,575,1202.5,582.7,1197.8,593.6z M1333.7,606.2
				c5.1,4.8-0.8,10-7.2,7.8C1316.2,610.5,1325.8,598.8,1333.7,606.2z M614.3,637.8c-1.7,4.4-15.6,10.3-16.9,0.3
				C594.9,618.2,620.4,622.1,614.3,637.8z M807.1,598.8c-2.6,7.4-14.2,4.7-16.1-2.4C787.7,584.4,811.2,587.2,807.1,598.8z
				 M730.1,585.4c-0.2,6-4.3,11.2-7.8,10.8c-3.5-0.5-7.3-2.8-8.4-8.9C712.7,580.9,730.6,574,730.1,585.4z M617.9,570.8
				c-1.6,4.7-6.3,6.5-12.3,2.3c-5.9-4.2-4.4-7.8-0.8-10.6C613.6,555.8,621.3,560.8,617.9,570.8L617.9,570.8z M857.9,361.5
				c0.2,7.9-9.1,11.5-12.8,7.9c-3.6-3.6-3.7-12-1.4-14.6C849.5,348.5,857.6,352.1,857.9,361.5L857.9,361.5z M971.4,472.2
				c-2.6,7.3-14.1,3.8-16-3.4C952.2,456.7,975.4,460.7,971.4,472.2z M932.1,435.6c-0.2,5.9-4.3,10.9-7.7,10.1
				c-3.4-0.8-7.3-3.4-8.4-9.5C914.8,429.6,932.6,424.2,932.1,435.6L932.1,435.6z M731.9,340.5c-1.3,3.3-11.9,7.1-12.9-0.6
				C717.1,324.7,736.6,328.7,731.9,340.5z M734.4,403.3c-1.8,5.2-9.8,3.6-11.1-1.3C720.9,393.7,737.3,395,734.4,403.3z M702.7,380.5
				c-1.6,4.6-6.5,6.3-12.4,1.9c-5.9-4.4-4.4-8-0.6-10.7C698.3,365.5,706,370.8,702.7,380.5L702.7,380.5z M797.4,392.4
				c-0.2,6-4.3,11.2-7.7,10.5c-3.4-0.6-7.2-3-8.4-9.1C780,387.3,797.8,380.9,797.4,392.4z M917.9,169c-2.9,4.7-9.6,2.8-10.6-1.8
				C905.3,158.3,923.1,160.8,917.9,169z M1124.5,474c0.2,8-9.1,10.7-12.8,6.7c-3.6-4-3.6-12.3-1.3-14.7
				C1116.2,460.1,1124.3,464.6,1124.5,474L1124.5,474z M978.4,330.6c-1.3,3.2-12,6.2-13-1.6C963.4,313.6,983.1,319.3,978.4,330.6z
				 M694.4,525.7c-2.9,4.9-9.6,3.7-10.6-0.8C681.7,516.1,699.5,516.9,694.4,525.7z M629.2,531.8c-1.3,3.3-12,7.8-12.9,0.1
				C614.4,516.6,633.8,519.8,629.2,531.8z M855.3,134.5c-0.2,6-4.2,11.1-7.7,10.3c-3.5-0.7-7.3-3.2-8.4-9.3
				C837.9,129.1,855.7,123.1,855.3,134.5z M1003.7,222.1c-3,4.6-9.4,2.5-10.5-2.1C991.2,211.1,1008.9,213.9,1003.7,222.1z
				 M822.4,285.7c-2.9,4.8-9.6,3.2-10.6-1.5C809.8,275.5,827.6,277.2,822.4,285.7z M1120.2,327.5c2.9,7.7-4.9,13.2-9.6,10.5
				c-4.7-2.7-7.6-10.7-6.3-13.7C1107.7,316.9,1116.8,318.7,1120.2,327.5L1120.2,327.5z M1217.7,461.4c-3.9,9.2-15.6,6.5-16.9-3.8
				C1198.4,437.5,1221.5,452.4,1217.7,461.4z M774.8,273.2c-2.9,4.9-9.6,3.3-10.6-1.2C762.1,263.3,779.9,264.6,774.8,273.2z
				 M731,279.4c-0.2,6-4.3,11.3-7.7,10.8c-3.4-0.6-7.3-2.8-8.4-9C713.8,274.8,731.5,268,731,279.4z M877.4,181.4
				c-1.2,3-10.9,5.8-11.8-1.4C864,166.3,881.6,171.2,877.4,181.4z M766.3,226.2c0.2,7.9-9.1,11.7-12.8,8.3c-3.7-3.4-3.7-12-1.4-14.6
				C758,213.4,766.1,216.7,766.3,226.2L766.3,226.2z"/>
			<path class="st0" d="M1303.8,586.6c-2-4-5.6-7.6-10.2-9.5c-6.3-2.7-12.7-4.8-19.3-6.3c-5.9-1.2-11.9-1.8-17.6-1.4
				c-5.9,0.4-11.6,1.8-16.9,4.4c-4.9,2.2-9.3,5.3-13.3,9.6c-0.1,0.1-0.3,0.2-0.3,0.3c-3.1,3.4-4.3,7.7-3.8,12.1
				c0.5,4.4,2.6,8.5,6.1,11.8c0,0.1,0.1,0.2,0.3,0.3c3.8,3.4,8.4,5.2,12.9,5.1c4.5,0.1,8.8-1.6,11.9-5c1.2-1.4,2.6-2.3,4.1-3
				c1.5-0.8,3.3-1.1,5.1-1.4c2.7-0.2,5.8,0.2,8.8,0.9c3.7,0.9,7.7,2.2,11.4,3.9c0.3,0.2,0.5,0.3,0.8,0.3c0,0,0,0,0.1,0.1
				c4.3,1.6,8.8,1.5,12.5,0c4-1.6,7.2-4.7,8.6-9c0-0.3,0.1-0.5,0.3-0.8c0,0,0,0,0-0.1C1306.3,595,1305.7,590.6,1303.8,586.6
				L1303.8,586.6z M1262.7,432.5c0-0.1,2.7-15.8-5.1-21.3c-11-7.7-22.9-14-34.9-16.8c-10.5-2.2-21-1.6-30.9,2.8c-0.1,0-0.1,0-0.1,0
				c-4,1.7-4,7.6-2.2,14c1.3,4.6,3.5,9.9,5.4,13.5c0,0.1,0.1,0.2,0.1,0.3c2.4,4.4,6.1,7.3,11.1,9c4.5,1.6,9.8,1.7,15.9,1
				c6.3-0.8,13,0.7,18.5,2c2.6,0.4,4.9,0.9,7.2,1.3c8.1,0.9,13.2-2.7,13.2-2.7c0.5-0.3,1-0.7,1.7-1
				C1262.5,433.8,1262.6,433.1,1262.7,432.5L1262.7,432.5z M758.3,337.7c-3.2-1.4-6.9-0.8-10,1.2c-2,1.2-3.8,3-5.1,5.3
				c-1.3,2.1-2.2,4.6-2.4,7.3c-0.3,5,1.7,10.9,7.8,16.2c0.8,0.6,1.5,1.2,2.3,1.8c7.5,5.3,18.9,7.7,31.2,5.7
				c12-1.8,25.1-7.8,36.3-19.6c1.8-1.7,3.3-3.6,5-5.6c8.9-11.4,11.6-22,10.6-30.9c-0.5-4.2-1.9-8.1-3.8-11.4c-2-3.4-4.6-6.2-7.4-8.2
				c-5-3.5-10.9-5.1-16.1-4.3l0,0c-4.1,0.8-7.2,2.1-9.5,3.7c-2.3,1.7-3.7,3.6-4.6,5.9c-0.8,2.1-1,4.1-0.8,6.1c0,0.1,0,0.1,0,0.1
				c0.5,3.4,2,6.7,3.8,9c0,0.1,0.3-0.2,0.1-0.2c-0.1,0.3-0.4,0.4-0.6,0.6c-0.5,0.2-1,0.2-1.4,0.1c-1.3-0.3-2.4-1.6-2.9-4.7
				c-1-6-2.3-12.2-5.9-16.2c-4.3-4.7-10.6-5.9-20.8-0.4c0,0.1,0,0.1,0,0.1c-2.9,1.6-5.9,3.7-8.4,5.9c-3.5,2.9-6.4,6.3-8.2,9.7
				c-2.3,4.2-2.8,8.4-0.9,12.1l0,0c0.4,0.8,0.9,1.6,1.5,2.2c3.3,3.7,8.3,5.3,13.3,6.9c2,0.7,4.1,1.3,5.8,2c2.6,1.1,3.6,2.4,3.7,3.3
				c0,0.2-0.1,0.4-0.1,0.5c-0.1,0.3-0.3,0.4-0.5,0.6c-0.9,0.6-2.4,0.8-4.1,0.2c-0.5-0.2-1.3-0.8-2-1.4
				C762.4,339.8,760.6,338.5,758.3,337.7L758.3,337.7z M908.7,189.2c-19.9,2.2-38.1,11.5-51.3,24.5C844.2,227,836,244.1,836,262
				c0,1.6,0,3.3,0.1,5c1.4,15.8,9.3,29,21.5,38.2c11.9,9,27.7,14.1,45.4,13.5c2.3-0.1,4.6-0.2,7-0.3c19.9-2.1,38.1-10.9,51.1-23.5
				c13.3-12.8,21.6-29.6,21.6-47.5c0-1.7-0.1-3.4-0.3-5.1c-1.4-15.8-9.3-29.5-21.4-39c-11.9-9.6-27.7-15-45.5-14.6
				C913.5,188.8,911.2,188.8,908.7,189.2L908.7,189.2z M1403.2,522c-13.6-8.4-29.7-12.5-45.3-10.8c-2,0.3-3.8,0.7-5.4,0.9
				c-13.4,2.9-23.9,10.2-30.2,19.8c-6.3,9.8-8.3,22.2-4.9,35.2c0.4,1.4,0.9,2.8,1.3,4c5.2,14.5,16.4,26.6,30.2,34.7
				c13.6,8,29.7,12.1,45.3,10.6c2-0.2,3.8-0.3,5.5-0.6c13.3-2.5,23.8-9.2,30-18.6c6.4-9.5,8.4-21.8,4.9-35.1
				c-0.4-1.5-0.8-2.8-1.3-4.2C1428.2,543.3,1417,530.6,1403.2,522L1403.2,522z M1040.9,366.3c-18.4-1.5-35.9,4-49.5,13.5
				c-13.8,9.7-23.5,24-25.9,40.1c-0.3,1.6-0.4,3-0.5,4.6c-0.9,14.6,4.3,27.9,13.9,38.1c9.5,10.2,23.1,17.5,39.1,19.8
				c2,0.3,4.1,0.5,6.3,0.6c18.4,1.5,35.9-3.6,49.5-12.8c13.8-9.3,23.7-23.2,26.1-39.2c0.1-1.5,0.4-3,0.4-4.6
				c0.9-14.6-4.3-28.1-13.9-38.7c-9.5-10.5-23.1-18.1-39.1-20.8C1045.1,366.8,1043.1,366.5,1040.9,366.3L1040.9,366.3z M808,414.4
				c-24.8,3.6-47.2,16.1-63.4,33c-16.5,17.3-26.6,39-26.6,61.1c0,2.1,0.1,4.1,0.3,6.2c1.8,19.2,11.4,35.2,26.3,45.6
				c14.6,10.5,34.3,15.8,56,14.3c2.8-0.2,5.8-0.5,8.7-0.9c24.7-3.6,47.2-15.2,63.4-31.5c16.4-16.2,26.6-37.3,26.6-59.3
				c0-2.1-0.1-4.1-0.3-6.2c-1.8-19.4-11.5-35.8-26.3-47.3c-14.6-11.1-34.3-17.1-56.1-16C813.8,413.6,810.9,414,808,414.4L808,414.4z
				 M1092.2,554.3c2.9,3.1,7.2,4.2,11.2,3.7c2.8-0.3,5.5-1.4,7.8-3.1c2.3-1.6,4.3-4,5.6-7.1c2.6-5.6,2.8-13.4-1.9-23.1
				c-0.6-1.2-1.3-2.3-1.9-3.4c-6.5-10.4-18.9-19.6-34.4-24.1c-15.2-4.3-33.5-3.8-52.2,4.7c-2.8,1.1-5.6,2.7-8.4,4.4
				c-15.9,9.5-23.8,21.1-26.3,32.2c-1.3,5.5-1.4,10.8-0.5,15.7c0.9,4.9,2.7,9.4,5.2,13.3c4.2,6.6,10.2,11.2,16.7,12.7
				c5,1.2,9.1,1.1,12.4,0.3c3.2-0.8,5.6-2.3,7.4-4.2c1.7-2,2.8-4.3,3.3-6.8c1-4,0.5-8.7-0.5-12.2c-0.1-0.9,0-1.5,0.4-1.7
				c0.5-0.4,1.3-0.6,2.2-0.5c0.9,0,1.9,0.3,2.7,0.9l0,0c1.8,1.3,2.9,4.1,2,9c-1.4,7.8-2.6,15.8-0.3,22.3c2.8,7.5,9.5,12.1,23.4,10.9
				c4.2-0.3,8.6-1.1,12.5-2.4c5.5-1.6,10.4-4,13.9-7.1c4.2-3.5,6.6-8,6-13.2c-0.1-0.9-0.4-2-0.8-2.9c-2.2-6.2-7.4-10.9-12.5-15.4
				c-2.2-2.1-4.3-4-6.3-5.9c-3.1-3.4-3.8-6-3.3-7.8l0,0c0.1-0.4,0.4-0.9,0.8-1.2l0,0c0.4-0.3,1-0.5,1.5-0.7c1.9-0.4,4.5,0.3,6.8,2.6
				c0.5,0.5,1.3,1.8,2.2,3.2C1088.4,549.5,1089.9,552.1,1092.2,554.3L1092.2,554.3z M1101.8,548.2c-1,0.2-1.9,0-2.4-0.6
				c-1.3-1.3-2.6-3.3-3.6-5c-1.2-2-2.2-3.7-3.6-5.3c-5.2-5.3-11.5-6.7-16.7-5.5c-2.2,0.4-4.1,1.5-5.8,2.9c-1.7,1.5-2.9,3.3-3.6,5.4
				l0,0c-1.5,4.7-0.4,10.9,5.5,17.4c2.2,2.3,4.6,4.4,7,6.6c4.2,3.8,8.4,7.5,9.7,11.2c0.1,0.3,0.1,0.6,0.3,0.9
				c0.1,1.6-0.9,3.2-2.8,4.7c-2.4,2.2-6.1,4-10.4,5.3c-3.3,1-6.9,1.6-10.4,2c-7.9,0.8-11.5-1.1-12.7-4.3c-1.5-4-0.5-10.7,0.8-17.1
				c1.7-9.3-1.5-15.5-6.1-18.9l0,0c-2.7-1.9-5.8-2.8-8.6-2.9c-3.1-0.1-6,0.7-8.3,2.4c-3.7,2.4-5.6,6.5-4.2,12.1
				c0.6,2.3,1,5.2,0.4,7.6l0,0c-0.1,0.9-0.5,1.9-1.2,2.5c-0.5,0.5-1.3,0.9-2.3,1.2c-1.7,0.5-4.1,0.4-7.4-0.3l0,0
				c-3.8-0.9-7.7-4-10.4-8.4c-1.8-2.8-3.2-6.1-3.8-9.7c-0.6-3.7-0.6-7.7,0.3-11.7l0,0c2.2-8.9,8.6-18.3,21.9-26.1
				c2.4-1.4,4.9-2.8,7.4-3.8c16.4-7.5,32.2-7.9,45.3-4.2c12.9,3.7,23,11,28.3,19.4c0,0.1,0,0.1,0,0.1c0.5,0.8,1,1.7,1.4,2.5l0,0
				c3.2,6.7,3.3,11.6,1.8,14.9c-0.6,1.5-1.5,2.5-2.7,3.4C1103.9,547.6,1102.8,548.1,1101.8,548.2L1101.8,548.2z M1001.4,302.6
				c-0.3,0-0.6,0-1.2-0.3c-0.5-0.3-1.2-0.9-1.5-1.6c-0.5-0.8-0.9-1.8-0.9-2.9c-0.3-2.8,1.2-6.2,5.1-10.1c0.5-0.5,1.2-1,1.7-1.5
				c6.1-4.7,15.6-7.4,26.1-6.3c10.7,1,22.4,5.9,32.5,16.1l0,0c1.7,1.6,3.2,3.3,4.6,5c7.7,9.6,10,18.3,9.1,25.4
				c-0.4,3.2-1.4,6-2.8,8.5c-1.4,2.4-3.3,4.6-5.4,6c-3.1,2.3-6.6,3.4-9.5,3.1l0,0c-2.6-0.3-4.3-0.9-5.4-1.6c-0.6-0.4-0.9-0.8-1-1.2
				c-0.3-0.4-0.3-1-0.3-1.7l0,0c0.3-1.9,1.3-3.8,2.3-5.3c0,0,0,0,0-0.1c2.8-4,2.4-8,0.3-11.3c-1.4-2.2-3.7-3.7-6.1-4.7
				c-2.4-0.8-5.2-1-7.9-0.3c-4.7,1.3-9.2,5.3-10.6,13.3c-0.9,5.1-1.9,10.2-4,12.7c-1.5,1.6-4.2,1.9-9.6-0.6c-2.6-1.3-5-2.7-7.2-4.5
				c-2.7-2.1-4.9-4.4-6.1-6.6c-0.8-1.5-1.2-2.8-0.6-3.6c0.1-0.3,0.1-0.3,0.3-0.4c1.8-2.2,5.9-3.9,10-5.4c2.6-0.9,5-1.9,7.3-3.1
				c6.5-3.4,9.3-8,9.6-12.3c0-2.1-0.4-4-1.4-5.8c-0.9-1.7-2.2-3.1-3.8-4.3c-3.8-2.6-9.5-3.4-15.1-0.7c-1.5,0.7-2.9,1.8-4.3,3
				C1004.1,300.8,1002.8,301.9,1001.4,302.6L1001.4,302.6z M995.4,311c3.3,1.8,7,2.1,10.5,0.5c2.4-1.1,4.2-2.7,6-4
				c0.9-0.8,1.8-1.5,2.3-1.7c2-0.9,3.7-0.9,4.9-0.2c0.3,0.2,0.5,0.5,0.6,0.7c0.1,0.3,0.1,0.5,0.1,0.8c0,1.1-1.3,2.6-4.2,4.1
				c-1.8,0.9-4,1.8-6.3,2.6c-5.2,2.1-10.5,4.1-14.1,8.4c-0.6,0.8-1.2,1.6-1.5,2.2c-2,4-1.4,8.4,0.9,12.7c1.9,3.4,5,6.8,8.8,9.7
				c2.8,2.2,5.9,4,8.9,5.6c10.7,5.1,17.4,3.3,21.9-1.8c3.8-4.4,5.1-11,6.3-17.5c0.6-3.5,2-5.2,3.5-5.5c0.5-0.3,1.2-0.1,1.7,0.1
				c0.5,0.2,0.8,0.3,1,0.6c0,0-0.1,0.1-0.3,0.3c-1.8,2.5-3.5,6-4,9.6c-0.3,2.2,0,4.3,0.8,6.5c0.9,2.2,2.4,4.2,4.9,5.8l0,0
				c2.4,1.7,5.6,2.9,10,3.4c5.6,0.7,11.8-1.1,17-5c3.1-2.2,5.8-5.3,7.9-8.8c2-3.5,3.6-7.7,4.1-12.3c1-9.4-1.8-20.7-11.4-32.6
				c-1.8-2.2-3.6-4.1-5.2-5.9c-12-12.1-26.1-17.9-39-19.2c-13-1.4-25.2,2.2-33.2,8.4c-0.8,0.7-1.7,1.4-2.4,2.2
				c-6.4,6.1-8.6,12.5-8.2,17.7c0.3,2.8,1.2,5.3,2.4,7.4C991.5,308.1,993.4,309.8,995.4,311L995.4,311z M753.2,347.1
				c0.3-0.2,0.6-0.3,0.8-0.3c1.2,0.4,2.4,1.4,3.5,2.2c1.4,1,2.7,1.9,4.2,2.5c5.4,2.2,10.7,1,14.3-1.7c1.7-1.2,2.9-2.7,3.7-4.3
				c0.9-1.8,1.4-3.7,1.3-5.6c-0.1-4.1-2.8-8.4-9.1-11.2c-2.2-1-4.5-1.7-6.6-2.4c-3.8-1.2-7.5-2.3-9.2-4.2c-0.1-0.2-0.1-0.3-0.3-0.3
				l0,0c-0.4-0.7,0-1.9,0.6-3.2c1.2-2.1,3.2-4.4,5.6-6.5l0,0c2-1.7,4.3-3.3,6.5-4.5l0,0c4.7-2.7,7.3-2.6,8.4-1.3
				c1.9,2.2,2.9,6.9,3.7,11.5c1.3,7.6,5.5,11.1,10.1,12.1c2.6,0.6,5.2,0.3,7.5-0.6c2.4-0.9,4.5-2.6,5.9-4.7
				c2.2-3.2,2.6-7.2-0.3-10.9l0,0c-0.9-1.4-1.8-3.1-1.9-4.7c-0.1-0.5-0.1-1,0.1-1.5c0.1-0.3,0.4-0.6,0.8-0.9
				c0.9-0.7,2.6-1.3,4.9-1.7c2.6-0.3,5.8,0.5,8.6,2.6c1.8,1.3,3.6,3.2,4.9,5.3c1.4,2.2,2.3,4.8,2.7,7.7l0,0
				c0.8,6.5-1.4,14.6-8.4,23.5c-1.4,1.8-2.8,3.5-4.2,4.9c-9.5,9.7-20.2,14.8-30,16.3c-9.6,1.6-18.3-0.3-23.9-4.1
				c-0.5-0.4-1-0.9-1.5-1.3c-3.7-3.2-4.9-6.4-4.7-8.8c0.1-0.9,0.4-2,0.8-2.7C752.1,348,752.6,347.5,753.2,347.1L753.2,347.1z
				 M1102.2,587.2c0,0,2.2,12.1,6.6,15.1c0.4,0.3,0.8,0.4,1.2,0.6c2.6,0.9,14.8,1.4,26.6,0.7c12.5-0.8,25.2-2.7,28.1-7
				c0.3-0.3,0.5-0.8,0.6-1.2c1.7-4.7-0.1-12.4-4.3-19.3c-3.5-5.7-8.6-11.1-14.8-14c-14.4-6.4-42.6,20.9-42.7,21
				c-0.6,0.6-1.2,1.1-1.7,1.6C1101.9,585.6,1102,586.4,1102.2,587.2L1102.2,587.2z M1113.9,593.8c-0.4-0.9-0.9-3.3-1.3-5.3
				c5.6-5.1,23-20.4,29.7-17.5c4.1,1.7,7.5,5.6,10,9.6c2.6,4.1,4,8.2,3.6,10.2c-1.7,1.2-10.9,2.1-20.5,2.7
				C1125.9,594.1,1116.6,594.2,1113.9,593.8L1113.9,593.8z M883.2,328.6c-0.1,0-11.3,17-5.1,25.5c0.3,0.5,0.5,0.9,0.9,1.3
				c4.1,5.8,7.7,11,18.8,16.9c5,2.6,8.4,4.5,10.2,6.7c1.7,1.9,2.4,4.4,2.7,8.6c0.4,11.2,15.2,12.4,27,11.7c3.8-0.3,7.2-0.6,9.2-0.9
				c0.5,0,1.2-0.1,1.7-0.2c4.9-0.4,8.1-7.5,9.6-15.9l0,0c1.2-6.7,1.8-14.7,1.4-19.5c0-0.1,0-0.2,0-0.3c-0.5-5.9-3.3-10.5-8.1-14.1
				c-4.5-3.4-10.7-5.7-18.3-7.1c-8.4-1.5-16.1-5.9-22.2-9.3c-2.9-1.6-5.5-3.2-7.9-4.1c-8.9-3.8-16.7-1.5-16.7-1.5
				c-0.8,0.3-1.4,0.4-2,0.6C883.8,327.6,883.4,328.1,883.2,328.6L883.2,328.6z M886.5,348.3c-1.7-2.3,2-9.3,4.1-12.7
				c1.8-0.3,4.7-0.2,8.1,1.2c1.9,0.8,4.3,2.1,7,3.6c6.8,4,15.3,8.7,25.4,10.4c6,1.1,10.7,2.9,13.9,5.3c2.6,1.9,4,4.2,4.2,7.1
				c0,0.1,0,0.2,0,0.3c0.4,4.1-0.1,11.2-1.3,17.1c-0.8,4.3,0.5,7.7-0.3,7.8c-0.6,0-1.3,0.1-1.9,0.2c-1.9,0.3-5.1,0.6-8.7,0.8
				c-7.2,0.5-16.2,0.5-16.4-2.4c-0.3-6.6-1.7-10.9-4.9-14.6c-2.9-3.4-7-5.7-13-9c-9.1-4.8-12.1-9-15.5-13.9
				C887,349.2,886.8,348.8,886.5,348.3L886.5,348.3z M1510.9,624.6c-0.8,2.2-2,4.8-2.9,4.7c-6-0.7-9.7-1.9-14.6-3.5
				c-1.8-0.5-3.8-1.2-5.4-1.6c-5.2-1.6-11.3-3.5-16.5-6.1c-4.7-2.3-8.9-5.2-11.4-9l0,0c-0.5-1,2.7,0,4.3-1.8c2-2.2,4.5-4.4,6.5-5.9
				c2.8,1.7,6.5,3.7,10.7,5.9C1492.6,613.2,1506.8,620.9,1510.9,624.6z M1509.1,639.5c8.3,1.2,12.4-11.8,12.4-11.8
				c0.1-0.6,0.4-1.1,0.6-1.7c-0.4-0.6-0.6-1.3-0.9-2c-3.1-7.1-22.1-17.8-36.4-25.5c-5.8-3.1-10.6-5.8-12.7-7.1
				c-0.9-0.5-1.8-1.1-2.7-1.8c-0.6,0.3-2,0.9-2.6,1.2c-2.9,1.5-7.2,5.1-10.5,8.7l0,0c-4.3,4.7-6.9,10.2-4.6,13.8
				c0.1,0.2,0.3,0.3,0.4,0.5c4,5.9,10.1,10,16.6,13.2c6.3,3.2,12.8,5.2,18.4,7c2.4,0.6,3.8,1.1,5.2,1.6
				C1497.8,637.3,1502,638.6,1509.1,639.5L1509.1,639.5z M981,506.5c-0.9,2.2-2.2,5.2-3.1,5.3c-5.9,0.7-9.6,0.4-14.4,0
				c-1.9-0.3-3.8-0.4-5.4-0.5c-5.2-0.3-11.3-0.9-16.5-2.2c-4.1-1-6.3-1.5-7.7-2.5c-1.5-1.1-2.2-2.9,0.6-6.5c2-2.6,4.5-5.3,6.4-7.1
				c2.8,0.9,6.6,2,10.9,3.3C962.7,499.6,976.8,503.8,981,506.5L981,506.5z M979.1,521.7c8.4-1,12.5-14.7,12.5-14.8
				c0.1-0.6,0.4-1.2,0.6-1.8c-0.4-0.6-0.6-1.1-0.9-1.7c-3.1-6.4-22.2-12.2-36.4-16.6c-5.8-1.7-10.6-3.2-12.7-4.1
				c-1-0.3-1.9-0.7-2.8-1c-0.6,0.3-2,1.3-2.4,1.8c-2.9,2.1-7.3,6.6-10.5,10.9l0,0c-4.3,5.7-6.9,11.5-4.6,14.6
				c0.1,0.2,0.3,0.4,0.4,0.4c4,5,10,7.8,16.6,9.4c6.3,1.5,12.8,2.1,18.3,2.5c2.4,0.2,4,0.3,5.2,0.3
				C967.9,522.1,972.1,522.5,979.1,521.7L979.1,521.7z M685.9,560.7c1.7,2.7,4.5,7.3,3.3,9.2c-0.3,0.3-0.5,0.8-0.8,1.2
				c-2.8,4.5-5.4,8.4-12.9,13.5c-5.1,3.5-8.6,6-11.1,9.3c-2.8,3.8-4.1,7.8-4.3,13.6c-0.1,1.8-7.4,2.9-13,3.5
				c-2.9,0.3-5.6,0.3-7.4,0.4c-0.8-0.2-0.6-3.3-1-6c-1-4.8-1.4-10.7-1.2-14.2c0-0.1,0-0.2,0-0.3c0.3-2.2,1.4-4.2,3.3-6
				c2.6-2.3,6.5-4.4,11.5-6c8.7-3,15.9-8.2,21.7-12.3c2.3-1.6,4.3-3.1,5.9-4C682.5,561.2,684.5,560.9,685.9,560.7L685.9,560.7z
				 M697.7,574.4c5.4-8.4-4.3-21.8-4.3-21.9c-0.4-0.5-0.8-0.9-1-1.4c-0.6-0.1-1.3-0.2-1.8-0.3c0,0-7.2-1-15,3.4
				c-2,1.2-4.3,2.8-6.8,4.5c-5.1,3.7-11.6,8.4-18.5,10.8c-6.5,2.2-11.9,5.1-15.8,8.6c-4.1,3.8-6.6,8.4-7,13.6
				c-0.1,0.1-0.1,0.1-0.1,0.2c-0.4,6.5,0.8,30,9.8,29.8c0.5-0.1,1-0.1,1.5-0.2c1.8,0,4.7-0.2,7.9-0.4c10.2-1.1,23.3-4.2,23.7-14.5
				c0.1-3.4,0.8-5.5,2-7.2c1.5-1.8,4.3-3.9,8.4-6.6c9.6-6.6,12.8-11.6,16.2-17.1C697.2,575.3,697.4,574.8,697.7,574.4L697.7,574.4z
				 M1252.2,419c1.3,1,1,5.9,0.8,8.7c-1.3,0.4-2.9,0.8-5.2,0.5c-1.4-0.2-3.6-0.8-6.1-1.2c-6.1-1.4-13.9-3-21.9-2.1
				c-4.6,0.6-8.3,0.5-11.3-0.4c-2-0.7-3.6-1.9-4.6-3.7c-0.1-0.1-0.1-0.2-0.1-0.3c-1.5-2.9-3.3-7.4-4.5-11.4
				c-0.6-2.1-0.9-3.2,0.4-3.7c7.9-3.5,13.3-3.1,21.7-1.3C1231.8,406.6,1242.3,412.1,1252.2,419L1252.2,419z M1122.7,354.9
				c-5-1.9-10.2-1.6-14.6,0.4c-4.3,1.9-7.8,5.5-9.5,10.2c-1.7,4.9-1,9.9,1.2,14.2c2.2,4.3,6,7.8,11.1,9.7c4.2,1.6,8.3,3.4,12.1,5.6
				c3.1,1.8,5.9,3.9,8.1,6.1c1.5,1.6,2.8,3.4,3.7,5.4c0.8,1.8,1.3,3.8,1.4,5.9c0.4,5.2,2.8,9.7,6.4,13.1c3.7,3.4,8.6,5.4,13.8,5.5
				c0.3,0,0.5,0,0.8,0c0,0,0,0,0.1-0.1c4.9-0.1,9.2-2.2,12.3-5.4c3.3-3.3,5.1-7.8,4.9-13c-0.1-0.3-0.1-0.5-0.1-0.7
				c-0.5-6.7-2-12.7-4.6-18.3c-2.7-6.2-6.6-11.7-11.2-16.6c-4.6-4.9-10-9.1-15.6-12.7C1136.6,360.6,1129.7,357.4,1122.7,354.9
				L1122.7,354.9z M830.9,206.2c4.5-2.9,7.5-7.1,8.7-11.8c1.2-4.7,0.5-9.6-2.3-14c-2.7-4.2-6.9-6.9-11.6-7.8
				c-4.9-0.8-10,0.1-14.4,3.1l0,0c-6.4,4.1-11.4,9-15,14.5c-4,6-6.4,12.6-7.7,19.4c-1.2,6.5-1.2,13.1-0.3,19.6
				c0.9,7.3,2.9,14.4,5.5,21.1c1.8,4.7,5.5,8,9.8,9.7c4.5,1.7,9.7,1.9,14.7-0.3c4.9-2.1,8.7-5.8,10.7-10.2c2-4.4,2.4-9.6,0.6-14.2
				c-1.5-4-2.8-8.1-3.3-12.1c-0.5-3.4-0.6-6.7-0.1-9.6c0.4-1.6,0.9-3.2,1.7-4.5C828.7,208,829.7,207,830.9,206.2L830.9,206.2z
				 M960.9,570.4C960.9,570.4,960.9,570.4,960.9,570.4c3.5-4,4.9-8.8,4.5-13.5c-0.4-4.6-2.4-9.1-6.3-12.4c-0.1,0-0.3-0.1-0.4-0.3
				c-4-3.3-8.9-4.7-13.8-4.2c-4.9,0.4-9.6,2.7-13,6.6c-1.4,1.5-3.1,3-5,4.1c-2,1.3-4.6,2.3-7.2,3.1c-3.1,0.9-6.5,1.6-9.8,1.8
				c-3.5,0.2-6.9,0.1-10-0.3c-5.2-0.8-10.4,0.7-14.3,3.5c-4,2.8-6.9,7.1-7.8,12.1c-1,5.2,0.3,10,3.1,13.8c2.8,3.8,7.2,6.5,12.3,7.2
				c6,0.9,12.4,0.9,18.8,0.5c6.1-0.4,12.4-1.6,18.4-3.4c6-1.8,11.8-4.3,17.1-7.6C952.5,578.5,956.9,574.8,960.9,570.4L960.9,570.4z
				 M718.8,441.4c-0.6-5-3.3-9-7.2-11.7c-3.8-2.5-8.9-3.4-14.1-2.2c-5.2,1.2-9.7,4.4-12.8,8.4c-3.1,4.1-4.6,9.2-4,14.2
				c0.4,3.2,0.4,6.1-0.1,8.7c-0.5,2.7-1.5,5-2.7,7c-0.6,1-1.4,2.1-2.2,2.9c-0.9,0.9-1.7,1.6-2.7,2.3c-0.8,0.6-1.5,1.1-2.4,1.5
				c-0.8,0.3-1.5,0.6-2.4,0.8c-0.9,0.3-1.8,0.4-2.6,0.3c-0.6-0.1-1.3-0.2-1.8-0.4c-4.5-2.2-9.6-2.3-14.4-0.6c-4.7,1.6-9.1,5-12,9.6
				c-2.8,4.7-3.7,9.8-2.7,14.4c1,4.5,3.8,8.4,8.3,10.6c4.5,2.2,9.3,3.5,14.3,3.9c5.1,0.4,10.4-0.1,15.6-1.3
				c3.6-0.9,7.2-2.1,10.7-3.8c3.5-1.6,6.9-3.7,10.1-6.1c3.2-2.3,6.1-5,8.9-8c2.6-2.9,5-5.9,7.2-9.5c3.7-5.9,6.5-12.5,8.1-19.8
				C719.4,455.9,719.8,448.8,718.8,441.4L718.8,441.4z"/>
			<path class="st0" d="M1127.3,479.2c-5.1-17.1-10.1-34-24.5-48.7c-4-4-7.8-7.8-11.6-11.8c5.5,0.5,11,0.9,16.5,1.6
				c35.7,3.7,61.4,19.5,79.5,40.6c12,14.2,20.6,30.7,26.2,47.4c4.2-18.6,12.3-33.6,24.8-46.2c20.8-20.8,53.9-34.7,103.6-47
				c2.8-0.8,5.6-1.5,8.6-2.1c0,3,0,6,0,9c0,43.7-12.1,77.7-34.9,101.8c-26.5,28.2-62.9,43.5-102.9,48.6
				C1160.8,551.8,1142,528.9,1127.3,479.2L1127.3,479.2z"/>
			<path class="st9" d="M590.9,279.3c-1.7,4.4-15.6,10.3-16.9,0.3C571.5,259.9,597,263.8,590.9,279.3z M465.8,561.3
				c-2.6,8.1-14,7.3-16,0.3C446.6,550.3,469.8,548.9,465.8,561.3z M543.2,477.9c-1.7,4.5-15.6,10.9-16.9,0.9
				C523.9,459.1,549.2,462,543.2,477.9z M488.1,519.4c-2.6,7.9-14,6.9-16-0.1C469,507.8,492.2,507,488.1,519.4z M549.3,528.9
				c-0.3,8.7-4.3,11.7-7.8,11.5c-3.5-0.2-7.3-2.2-8.4-8.2C531.8,526,549.6,520.2,549.3,528.9L549.3,528.9z M508.6,431.1
				c-2.5,7.5-6.5,7-12.4,3.1c-5.9-3.9-4.3-7.5-0.6-10.6C504.3,416.3,511.1,423.7,508.6,431.1z M661,176.8c-1.3,3.4-12,7.6-13-0.3
				C646,161.3,665.6,164.8,661,176.8z M663.4,239.5c-1.9,5.4-9.8,3.9-11.3-1C649.9,230.4,666.3,231.2,663.4,239.5z M631.6,217.6
				c-1.6,4.6-6.5,6.3-12.4,2.1c-5.9-4.2-4.3-7.8-0.6-10.6C627.4,202.5,635,207.7,631.6,217.6L631.6,217.6z M801.9,79.2
				c-4,6.7-9.6,3.1-10.6-1.5C789.2,69,805.9,72.5,801.9,79.2z M449.4,741.2c0.3,8.8-9.1,13.6-12.8,10.7c-3.6-2.9-3.7-11.4-1.4-14.5
				C441,729.7,449.2,732.5,449.4,741.2L449.4,741.2z M588.8,413.9c-4,7.1-9.4,4.2-10.5-0.3C576.2,405,592.8,406.8,588.8,413.9z
				 M565.9,378.1c-3,7.9-12,8.1-13,0.3C550.9,363.2,568.9,370.3,565.9,378.1z M535.8,320.9c-0.4,8.9-4.4,11.8-7.8,11.5
				c-3.4-0.3-7.3-2.2-8.4-8.2C518.4,317.9,536.2,312.1,535.8,320.9L535.8,320.9z M637.1,313.6c-4,6.9-9.4,3.8-10.5-0.7
				C624.6,304.2,641.1,306.6,637.1,313.6z M751.4,119.5c-2.9,4.8-9.5,3.4-10.6-1.1C738.6,109.6,756.5,111,751.4,119.5z M467.1,651.4
				c3.2,7.6-4.9,14.7-9.6,13.4c-4.7-1.3-7.6-8.6-6.3-12C454.6,644.3,463.9,643.9,467.1,651.4z M505.3,713.3
				c-3.9,10.4-15.6,11.5-16.9,1.4C485.9,695.2,509.1,703.1,505.3,713.3z M703.7,108.2c-2.9,4.9-9.5,3.6-10.6-0.9
				C691,98.5,708.8,99.6,703.7,108.2z M796.8,45.6c-2.7,6.7-10.9,6-11.8-1C783.3,30.8,799.4,39,796.8,45.6z"/>
			<path class="st13" d="M755.3,457c13.8-14.3,32.9-24.8,54-27.9c2.4-0.4,4.9-0.7,7.3-0.9c18.2-0.9,34.4,4,46.4,13
				c11.8,9,19.4,22,20.7,37.3c0.1,1.5,0.3,3.2,0.3,4.9c0,17.8-8.4,35.1-22,48.6c-13.8,14-32.9,23.9-53.9,27c-2.4,0.3-5,0.5-7.4,0.7
				c-18.2,1.3-34.3-3.1-46.3-11.7c-11.8-8.4-19.4-20.9-20.7-36.1c-0.3-1.6-0.3-3.3-0.3-5C733.3,489.1,741.8,471.2,755.3,457
				L755.3,457z M1361.7,525.2c12.4-1.4,25.2,1.9,35.8,8.4c10.5,6.4,18.8,15.8,22.6,26.5c0.4,1.1,0.8,2.2,1,3
				c2.4,9.4,1,17.9-3.6,24.8c-4.6,7-12.5,12.1-22.8,14l0,0c-1.5,0.3-2.9,0.5-4.2,0.6c-12.4,1.2-25.2-2.1-35.8-8.5
				c-10.5-6.2-18.8-15.2-22.6-25.8c-0.4-1-0.6-2.1-0.9-2.9c-2.6-9.1-1-17.8,3.5-24.8c4.6-7.2,12.5-12.6,22.8-14.7l0,0
				C1359,525.5,1360.4,525.3,1361.7,525.2L1361.7,525.2z M1383.3,567.2c-0.1-5.2-3.6-9.8-6.5-9.6c-2.9,0.3-6.1,2.1-7.2,7.1
				C1368.6,570.1,1383.7,576.9,1383.3,567.2L1383.3,567.2z M1375.4,535.3c-1-2.6-9.5-6.2-10.2-0.1
				C1363.6,547.2,1379.1,544.9,1375.4,535.3z M1362.7,583.5c-4.9,3.9-12.3-1-12-5.4c0.4-4.2,5.6-8.3,8.6-7.8
				C1366.4,571.2,1368.5,578.8,1362.7,583.5L1362.7,583.5z M1405.3,552.5c0.1,6.8-7.7,8.1-10.7,4.3c-3.2-3.8-3.2-10.9-1.2-12.7
				C1398.2,539.9,1405,544.5,1405.3,552.5L1405.3,552.5z M1412.9,582.8c-1,2.3-9.5,3-10.2-3.3
				C1401.2,566.9,1416.6,574.4,1412.9,582.8z M1396.6,593c-3.2,4.6-10.5,0.9-11.6-4.4C1382.6,578.1,1402.3,584.8,1396.6,593z
				 M1351.4,550.7c-0.3,4.9-3.7,8.6-6.5,7.3c-2.9-1.1-6.3-3.9-7.2-9.1C1336.8,543.1,1351.8,541.1,1351.4,550.7L1351.4,550.7z
				 M999.6,390.8c11.1-7.8,25.4-12.1,40.4-10.9c1.7,0.2,3.5,0.3,5.1,0.7c12.8,2,23.4,7.8,30.7,15.9c7.2,7.9,11.1,18,10.5,28.7
				c-0.1,1.1-0.3,2.2-0.4,3.4c-1.9,12.3-9.5,23.1-20.3,30.4c-11.1,7.6-25.4,11.7-40.4,10.6c-1.7-0.2-3.5-0.4-5.1-0.6
				c-12.7-1.9-23.4-7.6-30.7-15.4c-7.2-7.7-11.1-17.6-10.5-28.2c0.1-1.1,0.3-2.3,0.4-3.4C981.2,409.4,988.9,398.5,999.6,390.8z
				 M1039.9,432.1c-3.8,8.3-14.6,2.3-15.2-6.7C1023.7,410.7,1046,419.5,1039.9,432.1z M1017.5,410.5c-2,3.8-6.5,4.1-11.3-1.3
				c-4.6-5.4-2.7-8.2,0.9-9.7C1015.9,395.9,1021.9,402.3,1017.5,410.5z M1064.1,444.9c-1.5,2.5-11,3.4-10.7-3.3
				C1053.6,428.3,1069.4,436.1,1064.1,444.9z M1071.1,411.2c1.3-7.1-6.8-11.5-10.5-8.6c-3.8,2.8-5,10.5-3.3,13
				C1061.8,422,1069.6,419.6,1071.1,411.2L1071.1,411.2z M1029.9,453c0.6-5.4-2.4-10.4-5.6-10.2c-3.2,0.3-7,2.3-8.9,7.7
				C1013.4,456.2,1028.8,463.3,1029.9,453L1029.9,453z M1003.1,435.2c-1.5,2.6-10.9,3.6-10.7-3.2
				C992.7,418.9,1008.5,426.3,1003.1,435.2z M1042.7,402.7c-1.7,2.8-12.5,3.9-12.3-3.9C1030.8,383.7,1048.8,392.4,1042.7,402.7z
				 M868.2,223.7c10.7-10.4,25.4-18,41.8-19.8c1.9-0.2,3.8-0.3,5.6-0.3c14.1-0.3,26.6,3.9,35.8,11.2c8.9,7.2,14.8,17.4,15.9,29
				c0.1,1.2,0.1,2.5,0.1,3.8c0,13.7-6.5,26.8-17,36.9c-10.6,10.3-25.3,17.4-41.7,19.2c-1.9,0.2-3.8,0.3-5.8,0.3
				c-13.9,0.4-26.5-3.4-35.7-10.6c-8.9-6.8-14.8-16.7-15.9-28.3c-0.1-1.2-0.1-2.5-0.1-3.8C851.3,247.5,857.7,234.2,868.2,223.7
				L868.2,223.7z M918.5,249.8c-0.3,5.9-4.3,10.9-7.8,10.1c-3.3-0.8-7.3-3.4-8.4-9.6C901.1,244,919,238.5,918.5,249.8z M776.7,482.5
				c-1.7,4.6-6.4,6.1-12.4,1.5c-5.9-4.6-4.3-8.1-0.6-10.6C772.3,467.4,780,472.9,776.7,482.5L776.7,482.5z M830.6,521.3
				c-1.3,2.9-11.3,6.1-12.1-1.1C816.7,505.9,835,510.4,830.6,521.3z M821,539c5,3.6-0.9,10.1-7.3,9.2
				C803.4,546.9,813.1,533.2,821,539z M819.8,484.6c0.3-8-9.2-10.5-12.8-6.5c-3.7,4-3.7,12.4-1.4,14.7
				C811.3,498.6,819.5,493.9,819.8,484.6L819.8,484.6z M860,516.6c0.1-8-9.2-10.6-12.8-6.7c-3.7,3.9-3.7,12.4-1.4,14.6
				C851.6,530.5,859.8,526,860,516.6L860,516.6z M872.7,482.9c-1.2-2.8-11.1-5.1-12.1,2.3C858.8,499.6,877,493.3,872.7,482.9z
				 M851.7,470.5c-3.8-5.9-12.5-2.8-13.9,3.4C835.1,485.9,858.6,481,851.7,470.5z M791.4,533.2c-0.3-5.9-4.3-10.5-7.7-9.5
				c-3.5,1.3-7.4,4.2-8.6,10.6C774,540.8,791.9,544.5,791.4,533.2L791.4,533.2z M765,512.7c-1.2,3-11.3,6.5-12.1-0.7
				C751.1,497.7,769.4,501.7,765,512.7z M799.3,456.7c-0.9,2.2-8.4,4.8-9.1-0.7C788.8,445.2,802.6,448.5,799.3,456.7z M794.2,502.6
				c-1.8,6.3-9.8,3.9-11.1-2.1C780.8,490.6,797,492.9,794.2,502.6z M834,448.2c-0.3,6-4.3,11-7.8,10.4c-3.5-0.8-7.3-3.1-8.4-9.2
				C816.6,442.9,834.3,436.7,834,448.2L834,448.2z M909,286c-1.2,2.9-11.1,5.9-12-1.5C895.2,270.2,913.5,275.3,909,286z M894,227.3
				c-5.8-5.4-14.6-0.6-14.2,4.6c0.4,5.2,6.6,10.8,10.1,10.7C898.5,242.4,900.9,233.8,894,227.3L894,227.3z M944.5,271.2
				c0.1-8-9.2-10.9-12.8-7.1c-3.7,3.8-3.7,12.2-1.4,14.6C936.1,284.8,944.3,280.5,944.5,271.2L944.5,271.2z M953.6,237.1
				c-1.3-2.9-11.3-5.4-12.1,1.9C939.7,253.4,958,247.7,953.6,237.1z M934.3,221.9c-3.8-6.1-12.5-3.2-13.9,2.9
				C917.7,236.7,941.1,232.6,934.3,221.9z M880.7,264.3c-0.3-5.9-4.3-10.6-7.8-9.6c-3.5,1-7.3,3.7-8.4,10.1
				C863.2,271.2,881.1,275.6,880.7,264.3z"/>
			<path class="st14" d="M1290.5,586.2c1.9,0.9,3.5,2.3,4.3,4c0.8,1.7,1,3.7,0.4,5.4c0,0.1,0,0.1,0,0.1c-0.6,1.8-1.9,3.1-3.6,3.8
				c-1.7,0.7-3.7,0.6-5.6-0.3c-0.3,0-0.5-0.2-0.8-0.3c-4.1-1.7-8.3-3.2-12.5-4.1c-4-0.9-7.9-1.3-11.8-1.1c-2.9,0.3-5.9,0.9-8.6,2.2
				c-2.4,1.2-4.7,2.9-6.8,5.1c-1.3,1.5-3.1,2.1-5,2.2c-1.9,0-3.8-0.8-5.4-2.2l0,0c-1.7-1.4-2.6-3.3-2.8-5.1
				c-0.1-1.8,0.4-3.7,1.7-5.1c3.2-3.5,6.9-6.2,10.7-8c4.2-2,8.8-3,13.6-3.4c4.9-0.3,9.8,0.1,14.8,1.1
				C1279.1,581.8,1284.8,583.8,1290.5,586.2L1290.5,586.2z M1112.9,364.3c1.9-0.9,4.3-1,6.8-0.2c6.1,2.2,12.4,5.1,18.2,8.6
				c5,3.1,9.5,6.5,13.4,10.7c3.8,4,7,8.7,9.3,13.7c2,4.8,3.3,9.9,3.7,15.5c0,0.1,0,0.2,0,0.2c0.1,2.3-0.8,4.5-2.2,6
				c-1.5,1.6-3.7,2.4-6.1,2.5c-0.1,0-0.1,0-0.1,0c-2.4-0.1-4.7-1-6.4-2.6c-1.7-1.6-2.8-3.7-2.9-6.1c-0.3-3.4-1-6.6-2.4-9.6
				c-1.3-3.1-3.3-5.9-5.6-8.3c-2.9-3-6.5-5.8-10.4-8c-4.3-2.7-9.1-4.7-14.1-6.5c-2.3-0.9-4.1-2.6-5.1-4.6c-1-2.1-1.3-4.4-0.5-6.6
				C1109.2,366.9,1110.9,365.2,1112.9,364.3L1112.9,364.3z M829.6,192.5c-0.5,2.2-1.9,4.2-4,5.5c-2.7,1.7-4.7,3.9-6.3,6.2
				c0,0.1,0,0.1,0,0.1c-1.5,2.6-2.6,5.3-3.1,8.3c-0.8,4.1-0.8,8.4,0,12.7c0.6,4.6,2,9.5,3.8,14c0.8,2.2,0.6,4.7-0.4,6.6
				c-0.9,2.2-2.7,3.9-5,4.8c-2.3,1-4.7,1-6.8,0.2c-2-0.8-3.8-2.4-4.6-4.7c-2.3-5.9-4.1-12.3-5-18.8c-0.6-5.6-0.8-11.3,0.3-16.8
				c1-5.5,2.9-10.8,6-15.4c2.8-4.3,6.6-8.1,11.8-11.4l0,0c2-1.4,4.5-1.8,6.8-1.4c2.2,0.3,4.2,1.6,5.4,3.5
				C829.9,188.1,830.2,190.3,829.6,192.5L829.6,192.5z M705.3,438.2c1.8,1.1,3.1,3.1,3.3,5.4c0.8,6.3,0.5,12.4-0.6,17.9
				c-1.3,6-3.6,11.5-6.6,16.4c-1.7,2.8-3.7,5.4-5.9,7.8c-2.2,2.4-4.6,4.6-7.2,6.5c-2.6,1.9-5.4,3.5-8.1,4.9
				c-2.8,1.3-5.8,2.3-8.6,2.9c-4.1,1-8.2,1.4-12.1,1.1c-3.7-0.3-7.5-1.4-11-3.1c-2-0.9-3.3-2.8-3.8-4.9c-0.4-2.1,0-4.6,1.3-6.7
				c1.3-2.2,3.3-3.7,5.6-4.5c2.2-0.8,4.6-0.8,6.6,0.3c1.7,0.9,3.5,1.3,5.4,1.5c1.9,0.1,4-0.2,5.9-0.6c1.5-0.3,3.2-0.9,4.7-1.7
				c1.5-0.7,3.1-1.6,4.5-2.7c1.4-1,2.9-2.4,4.2-4c1.3-1.3,2.4-2.8,3.6-4.6c1.9-3.1,3.3-6.7,4.1-10.8c0.8-3.6,0.9-7.5,0.3-11.7
				c-0.3-2.3,0.5-4.7,1.9-6.5c1.4-2,3.5-3.5,5.9-4C701.1,436.5,703.6,437,705.3,438.2L705.3,438.2z M955.3,557.7
				c0.1,2.2-0.5,4.5-2.2,6.3c-3.2,3.6-6.9,6.6-11,9.2c-4.5,2.8-9.5,5-14.6,6.5c-5.2,1.6-10.6,2.5-16.1,2.8
				c-5.6,0.4-11.3,0.3-16.5-0.4c-2.4-0.3-4.3-1.6-5.6-3.4c-1.4-1.7-1.9-4-1.5-6.4c0.4-2.3,1.8-4.4,3.7-5.7c1.8-1.3,4.2-2.1,6.6-1.7
				c4,0.6,8.1,0.8,12.3,0.4c4.1-0.3,8.2-1,12.1-2.2c3.5-1,6.6-2.4,9.6-4.1c2.8-1.6,5.4-3.7,7.4-6.1c1.7-1.9,3.8-2.8,6.1-3.2
				c2.3-0.2,4.6,0.5,6.5,2.1C954,553.4,955,555.6,955.3,557.7L955.3,557.7z"/>
			<path class="st14" d="M1293.9,473.4c-0.1,0-25.2,35.7-44.2,57.7c-7.8,9.1-14.7,16.8-19.9,22.7c32.2-6.8,57.8-19.7,75.8-39.2
				c19.4-20.6,30.4-49.1,32-85.3c-42.8,11.2-71.8,23.6-89.9,41.9c-17.1,17.2-24.7,39.8-25.3,71.8c5.6-5.4,11-9.5,16.6-15.8
				C1255,509.3,1275.8,487.7,1293.9,473.4L1293.9,473.4z M1204.2,553.1c-19.6-25.8-40.1-59.5-48.5-82.5
				c11.5,18.1,35.2,50.6,52.8,70.4c-3.5-24.5-12.8-51.4-30.8-72.5c-13.3-15.7-31.6-28-55.6-33.6c8.9,13.4,13.2,27.6,17.4,41.5
				C1147.5,503.5,1155.7,531.1,1204.2,553.1L1204.2,553.1z"/>
		</g>
		<g>
			<path class="st0" d="M0,1313l43.7-70.4c2.4-3.8,3.5-8.5,4-12.9l0-346.2c-0.6-14.7-3-31.5-9.4-45L8.4,775.8
				c72.8-8.3,145.8-15.2,218.5-24.4c13.7-1.7,29.2-3.6,43-3.1c26.4,1,50.5,9.9,71.5,25.3c17.4,12.8,30.9,28.7,41,46.9
				c155.3-28.1,286.5-58.7,414-82.7c189.6-35.6,354.4-47.3,538.8-39.5c46.2,2,82.1,2.3,121.5,35.4l-17.2-30.8
				c210.3,34.5,359.6,58.5,563.6,128.6c-64,10.4-108.9,35.6-95.8,91.3l53.5,234.2L2040,1319c-180.8-72.7-350.6-135.5-552.8-169.8
				c-387.9-65.3-617.3,60.6-998.4,144.5C354.6,1323.2,151.7,1336.9,0,1313L0,1313z"/>
			<path class="st15" d="M101,1126.2c0-21.8,0-43.6,0-65.3c0-21.7,0-43.5,0-65.3c0-25.3-0.4-47.5-0.6-66.4
				c-0.2-19.1-0.7-35-1.3-47.7c-1.1-25.3-5.9-46.7-14.1-63.9c4.3-0.5,11.1-1.2,20.4-2.1c22.9-2.1,45.9-4.4,68.7-7
				c0,0,19.8-2.4,59.3-7.4c16.5-2.1,28-2.9,34.3-2.7c15.2,0.6,29.2,5.5,42.4,15.2c14.8,10.9,26,25.8,33.4,45.1
				c7.4,19.3,11.3,43,11.3,71.1c0,26.2-3.4,50.8-10.2,74.1c-16.8,57.7-54.8,91.1-114.9,99.1l-40.9,0.4c-0.6,38.7-0.2,73.4,0.7,104.1
				c0.5,15.3,1.3,26.1,2.2,32.2c1.8,11.4,5.6,21.7,10.9,30.9c0,0-23.2,0.6-69.5-0.4c-30.2-0.6-45.4-1.6-45.4-1.6
				c5.9-9.5,9.7-20.8,11.1-33.6C100.4,1222.1,101,1185.9,101,1126.2L101,1126.2z M1867.5,980c5.3,25.8,10.7,51.7,15.9,77.7
				c9.8,48.5,19.1,86.8,28.2,114.6c9.1,28,18,45.5,26.5,52.5c0,0-16.7-6.7-50-20.1c1.1,0.4-7.4-3.5-25.8-11.2
				c-13.7-5.7-26.7-9.9-38.9-12.6c2.6-2.7,5.2-5.4,7.8-8c-0.4-9.6-2.8-32.2-7-67.4c-25.8-8.1-51.5-16.2-77.1-23.7
				c-5,20.4-7.6,36.1-7.6,47.3c0,12.1,3,21.4,8.9,27.8c-3.9-1.5-11.8-3.6-23-6.7c-14.9-4.2-27.1-7.6-36.3-10
				c-24.7-6.4-37.1-9.6-37.1-9.6c10.6-2.2,18.7-11.9,25.2-28.9c2.2-5.8,6.1-17.5,11.1-34.9c5-17.5,11.3-40.9,18.9-70.2
				c5.4-20.6,11-41.3,16.5-62c8-30.4,14.1-54.3,18-71.7c3.9-17.5,6.1-28.3,6.1-32.6c0-13.3-5.6-22.9-16.5-28.7
				c8.2,1.9,19.6,4.6,34.1,8c0,0,11.5,3.1,34.7,9.2c8.9,2.4,19.7,5.2,32.2,8.9c12.6,3.7,23.7,7.1,33.5,10.1c-15.4,0-23,7.5-23,22.5
				c0,8.4,2.6,23.5,7.6,45.2C1860.7,950.4,1866.6,975.3,1867.5,980L1867.5,980z M1757.7,1019c18.2,5.2,36.3,10.8,54.7,16.4
				c-4.8-24.4-9.6-48.8-14.3-73.1c-4.6-24.2-9.3-48.5-13.9-72.7c-4.4,21.7-9.1,43.2-13.3,64.7
				C1766.5,975.9,1761.9,997.4,1757.7,1019L1757.7,1019z M1609.6,905.9c0,24.6,0,49.3,0,74c0,30.2,0.2,55.9,1.1,77.1
				c1.2,28.8,5.4,51.1,12.4,67c0,0-15.7-3.8-47.3-10.2c-31.4-6.3-47.3-8.9-47.3-8.9c5-11.3,8-31.8,8.7-61.5
				c0.4-18.2,0.7-44.6,0.6-79c-0.1-24.1-0.4-48.2-0.6-72.3c-0.2-24.2-0.5-48.3-0.6-72.5c-0.1-20.5-3.3-38.6-10-53.8
				c4.6,0.2,12.6,1.4,23.5,3.3c0,0,8.4,1.1,25.2,3.7c30.6,4.8,45.8,7.5,45.8,7.5c-2.2,3.5-6.2,11.8-8.7,25.3
				C1609.5,822.4,1609.6,855.9,1609.6,905.9L1609.6,905.9z M1245.3,945.5c-0.3-26.3-0.9-52.7-1.1-79c-0.2-20.6-0.1-49-1.3-85.2
				c-0.5-15.6-4.4-27.7-11.1-36.3c5.2,0.1,12.8,0.2,23,0.4c0,0,4.8,0,14.6,0.4c66.5,2.4,99.9,4.4,99.9,4.4
				c30.2,2.7,53.7,16.2,71,40.3c14,19.6,21.1,39.8,21.1,60.8c0,23.9-4.9,44.1-15.2,60.5c-7,11.1-18.2,20.2-33.5,27.4
				c15.7,36.3,30.8,67.8,44.7,94.4c14,26.7,26.9,48.9,38.7,66c0,0-17.7-3-53.4-7.4c-30.9-3.8-46.3-5.1-46.3-5.1
				c5-2.2,7.6-7.1,7.6-15.1c0-7.5-4.1-21.5-11.9-41.4s-19.6-46.2-35.2-78.5c-9.8,0.4-19.6,1-29.3,1.6c-4.1-0.2-8-0.6-11.9-1
				c-0.2,16-0.4,31.9-0.6,47.9c-0.4,39.4,3.1,66.7,10.6,81.5c0,0-18.2-1.1-54.5-1.7c-22.4-0.3-33.5,0-33.5,0
				c3.9-9.5,6.4-23.3,7-41.4C1245.6,1016.4,1245.7,985.2,1245.3,945.5L1245.3,945.5z M1315.7,775c0,25.2,0,50.5,0,75.7
				c0,25.2,0,50.4,0,75.6c3.5,0.9,8.9,1.4,15.9,1.7c11.3,0.5,22.5-6.2,33.5-20.3c12.4-15.9,18.7-34.6,18.7-56.1
				c0-15.1-3.4-30.8-10.6-46.8c-9-20.1-20.9-30.5-35.8-31.1C1331.6,773.3,1324.4,773.8,1315.7,775L1315.7,775z M1098.3,919.8
				c-0.4,33-0.9,66.1-1.1,99.2c-0.1,20.4,0.1,32,0.6,34.6c1,5.4,5,7.6,11.7,6.8c2.4-0.3,7.4-1.4,15.4-3c25.4-5.1,41.8-9.1,49.3-12.2
				c9.8-4,23-13.1,39.8-27.7c-2.2,14.7-6.5,36.2-12.2,64.4c0,0-29.6,1.2-88.8,6.7c0.4-0.1-18.3,2.1-55.8,8.2
				c-22.9,3.7-41.5,7.8-56.3,11.6c3.2-7.5,4.8-12.8,5.7-15.5c1.9-5.6,3-12.4,3.5-20.5c1.2-18.4,1.9-52.7,1.9-103.1
				c0-29.8,0-59.7,0-89.6c0-25.2,0.1-50-0.6-74.4c-0.5-16.7-2.1-28.3-3.5-35c-0.8-3.6-3.5-9.4-8.3-17.4c7-1,18.3-1.7,33.5-2.2
				c0,0,17-1.4,51.1-2.4c78.2-2.5,117.5-2.1,117.5-2.1c0.4,0.2-0.5,8.4-3,24.3c-2.7,17.2-4.1,25.9-4.1,25.9
				c-5.2-6.4-9.2-10.2-12.4-11.3c-3.1-1.1-10.4-1.8-21.7-2.2c-18.3-0.6-39.5-0.2-62.8,1.5c0,31.6,0,63.1,0,94.7
				c9.3-0.7,18.7-1.5,28.2-1.9c18-0.8,29.3-1.7,34.1-2.4c7.4-1.1,14.6-3.3,21.7-7c0,8,0,16,0,24c0,20.7,0,31.1,0,31.1
				c-7.8-4.9-22.2-6.7-43.5-5.7C1124.8,917.6,1111.5,918.5,1098.3,919.8L1098.3,919.8z M968.4,754.6c-2,2.6-4,5.2-5.9,7.7
				c-3.1,3.9-9.7,19.2-19.1,46.2c-9.5,27.2-22.1,66.1-38,117.2c-15.8,51.1-27.4,90.9-35.2,118.8c-7.8,28-11.7,44.2-11.7,48.3
				c0,7.8,8.5,9.5,25.8,5.1c10.2-2.6,28.9-10.3,55.8-22.7c9.5-4.4,18.2-10.9,25.9-19.5c-6.3,29.6-9.4,50.6-9.4,63
				c-52.6,12.2-105.1,28.2-157.3,42.3c-18.3,4.9-36.3,9.7-53.6,14.9c4.8-11.9,15.9-42.4,33-91.3c9.7-27.8,19.5-55.7,29.3-83.4
				c7-21.5,14-43,21.1-64.2c22-66,33-104.9,33-118.1c0-2.9-0.4-4.7-1.1-5.7c-13.3,1.3-26.1,3.2-38.2,5.6
				c-28.4,5.7-46.1,10.6-53.6,14.2c-7.4,3.6-13.7,10.2-18.7,19.7c0,0,2.2-13.4,7-40.4c0,0,1.7-8.4,5.2-25.1c1.3-0.6,7-1.8,17.6-3.7
				c0,0,20.5-5.3,62.3-12C926.4,758.2,968.4,754.6,968.4,754.6L968.4,754.6z M731.6,794.2c-2,3-4,6.2-5.9,9.1
				c-3.1,4.7-9.7,21.7-19.1,51.1c-9.5,29.6-22,71.8-38,126.5c-15.7,53.9-27.4,95.6-35.2,124.6c-7.8,29-11.7,45.7-11.7,49.9
				c0,8.1,8.5,10.1,25.8,5.7c10.2-2.6,28.9-10.6,55.8-24c9.5-4.7,18.2-11.8,25.9-21.2c-6.3,31.6-9.4,54-9.4,67.2
				c-14.5,3.5-33,8.9-56.3,15.1c-36.4,9.7-51.9,13.1-46.5,11.8c-4.3,1-22.3,5.9-54.5,13c-18.4,4.1-36.3,7.7-53.6,11.6
				c4.8-11.6,15.9-41.6,33-90.3c9.8-27.9,19.5-55.9,29.3-84c7-21.8,14-43.8,21.1-65.7c22-68.2,33-109.1,33-122.7
				c0-3-0.4-4.9-1.3-5.8c-13.2,2.1-25.9,4.6-38.2,7.5c-28.2,6.7-46,11.7-53.4,15.5c-7.4,3.7-13.7,10.3-18.7,20c0,0,2.2-13.6,7-40.7
				c0,0,1.7-8.5,5.2-25.5c1.3-0.6,7-1.9,17.6-4c0,0,20.8-4.7,62.3-14.7C689.6,804.1,731.6,794.2,731.6,794.2L731.6,794.2z
				 M464.8,1000.2c0,27.9,0,55.7,0,83.6c0,34.1,0.3,62.9,1.1,86.7c1.1,32,5.4,55.4,12.4,70.1c0,0-15.7,3.1-47.3,8.3
				c-31.7,5.2-47.4,7.1-47.4,7.1c5.2-14.5,8.2-38.8,8.9-72.8c0.4-20.9,0.7-50.7,0.6-89.7c-0.1-27.3-0.4-54.6-0.6-81.9
				c-0.2-27.3-0.5-54.6-0.6-81.9c-0.1-23.3-3.3-42.5-10-57.8c4.6-1.1,12.4-2.6,23.5-4.3c0,0,8.3-1.5,25.2-4.8
				c30.6-6,45.8-9.2,45.8-9.2c-2.4,4.9-6.2,15.5-8.7,32.1C464.7,905.5,464.8,943.8,464.8,1000.2L464.8,1000.2z M188.9,844.9
				c0,36.1,0,72.1,0,108.1c0,36,0,72.1,0,108.1c4.4,1,11.3,1.3,20.6,0.7c16.5-1.1,29.1-15.4,38-42.3c7-21.3,10.9-45.5,10.9-72.7
				c0-25.8-3.6-49.2-10.9-70.1c-9.2-26.1-22.4-37.9-39.5-36C202.6,841.5,196.3,842.8,188.9,844.9L188.9,844.9z"/>
			<path class="st16" d="M192.8,1264.6c-3.4-7.6-5.7-15.6-7-24c-1.7-10.5-2-22.4-2.3-33c-1.1-34.8-1.2-69.6-0.7-104.4l0.1-6.1
				l46.6-0.4c44-5.9,75.5-26,95-60.1c-17.3,1.5-34.7,2.5-52.4,3l-26.5,0.8c-7.5,14.2-18.7,26.5-35.6,27.6c-7,0.5-15.5,0.7-22.4-0.9
				l-4.8-1.1v-4.9v-18.9l-75.4,2.2v16.4c0,21.8,0,43.6,0,65.3c0,24-0.1,48-0.5,72c-0.2,12.2-0.3,25.3-1.6,37.4
				c-1,9.5-3.4,18.7-7.3,27.3c11.8,0.6,23.8,0.8,35.5,1.1C153,1264.5,173,1264.9,192.8,1264.6L192.8,1264.6z M398.8,1027.6
				c20.1-3.2,40-6.8,59.8-10.8v67.1c0,28.9,0.2,58,1.1,86.9c0.7,19.9,2.7,45.5,10,65.3c-13.2,2.5-26.4,4.7-39.6,6.8
				c-12.5,2-25.2,4.1-37.8,5.9c5.1-20.3,6-46.1,6.4-65.3c0.6-29.9,0.6-59.9,0.6-89.9C399.2,1071.6,399,1049.6,398.8,1027.6
				L398.8,1027.6z M602.7,982.4c21.2-5.5,42.4-11,63.8-16.5l-3.8,13.2c-12.1,41.5-24.1,83-35.2,124.7c-3.1,11.4-6.1,22.9-8.8,34.4
				c-1.1,4.7-3.1,12.3-3.1,17c0,17.9,22.2,14.6,33.5,11.7c7.5-2,15.4-5.2,22.5-8.3c11.6-5,23.1-10.5,34.4-16.1
				c4.7-2.4,9.2-5.2,13.3-8.4c-2.7,14.6-5.2,30.2-5.7,44.1c-17.3,4.4-34.6,9.4-51.8,14c-11.4,3-22.8,6-34.3,8.9c-2,0.5-4,1-6.1,1.5
				l0-0.1l-6,1.5c-18.2,4.4-36.1,8.9-54.4,13c-14,3.1-28.1,6-42.1,9.1c2.6-6.8,5.1-13.7,7.6-20.5c7.2-19.6,14.2-39.4,21.1-59.1
				c9.8-28,19.5-56,29.3-84c7.1-22,14.1-44,21.2-65.9C599.7,991.9,601.2,987.2,602.7,982.4L602.7,982.4z M838.9,927.1
				c21.3-4.1,42.3-7.8,63.1-11.2l-2.5,8c-12.2,39.5-24.2,79.2-35.3,119c-3.1,11.1-6.1,22.2-8.8,33.3c-1.1,4.5-3.1,12-3.1,16.6
				c0,17.7,22.5,13.9,33.5,11.1c7.5-1.9,15.3-5,22.4-8c11.6-4.7,23-9.9,34.4-15.1c4.8-2.2,9.2-4.8,13.4-7.9
				c-2.7,13.5-5.1,28-5.6,40.8c-51.4,12.1-101.9,27.5-152.8,41.3c-13.9,3.8-27.8,7.4-41.6,11.4c2.5-6.7,4.9-13.5,7.4-20.2
				c7.2-19.8,14.2-39.7,21.1-59.6c9.7-27.8,19.4-55.6,29.3-83.4c7.1-21.6,14-43,21.2-64.4C836.3,935,837.6,931,838.9,927.1
				L838.9,927.1z M1018.2,900.1c54.2-5.8,106.5-9.3,157.3-10.5v1.8c0,7.3,0,14.6,0,21.9c-11.9-3.4-27.1-3.1-37.7-2.6
				c-13.4,0.7-26.8,1.6-40.1,2.8l-5.6,0.5l-0.1,5.6c-0.4,33.1-0.9,66.1-1.1,99.2c-0.1,8-0.1,16.1,0,24.1c0.1,3.4,0,8.2,0.6,11.6
				c1.8,9.5,9.6,12.8,18.5,11.8c5.1-0.6,10.8-2.1,15.9-3.1c10.6-2.1,21.2-4.3,31.6-6.9c6.1-1.5,12.9-3.2,18.8-5.6
				c9.4-3.8,19.5-10.8,28.7-18c-2.6,14.4-5.6,28.8-8.5,43.1c-28,1.3-56.4,3.9-84.2,6.5c-4.6,0.3-9.8,1.2-14.5,1.9
				c-13.9,1.9-27.8,4.1-41.7,6.3c-15.2,2.5-30.3,5.4-45.4,8.9c0.6-1.6,1.1-3.2,1.6-4.7c2.3-7,3.4-14.7,3.8-22.1
				c2.1-34,1.9-69.4,1.9-103.5L1018.2,900.1L1018.2,900.1z M1250.6,889.4c19.8,0.4,39.4,1.1,58.9,2.2v34.7v4.9l4.7,1.1
				c5.3,1.3,11.6,1.6,17.1,1.9c16.3,0.8,29.3-10.7,38.7-22.7c3.7-4.7,6.9-9.6,9.5-14.7c21.5,2,42.9,4.5,64.1,7.3
				c-0.8,1.6-1.8,3.1-2.7,4.7c-7.2,11.5-18.8,19.4-30.9,25.1l-5.4,2.6l2.4,5.5c13.9,32,28.7,63.8,44.8,94.8
				c9.6,18.5,19.9,37.2,31.3,54.8c-13.2-2-26.5-3.6-39.6-5.3c-11.5-1.4-23.2-2.9-34.8-4.1c1.1-3.1,1.5-6.5,1.5-10
				c0-12.1-7.9-32.4-12.3-43.7c-10.4-26.7-23-53.2-35.4-79l-1.8-3.7l-4.1,0.2c-9.7,0.4-19.3,1-29,1.6c-3.8-0.2-7.5-0.6-11.3-0.9
				l-6.7-0.6l-0.1,6.7c-0.2,16-0.4,32-0.6,47.9c-0.2,20.6,0.2,52.6,7.4,74.8c-15-0.7-30.2-0.9-45-1.2c-8.3-0.1-16.6-0.3-25-0.2
				c3.1-11.2,4.2-23.8,4.6-34.8c1.1-31.2,0.9-62.7,0.6-94C1251.3,926.8,1250.9,908.1,1250.6,889.4L1250.6,889.4z M1543.8,920
				c19.9,3.7,39.8,7.7,59.6,12v47.9c0,25.8,0.1,51.6,1.1,77.4c0.8,18.5,2.8,39.6,8.7,58.1c-12-2.7-24.1-5.2-36.2-7.6
				c-13.3-2.7-26.7-5.3-40.1-7.7c5.2-17,6.2-40.6,6.5-56.5c0.6-26.3,0.6-52.8,0.6-79.1C1544,949.6,1543.9,934.8,1543.8,920
				L1543.8,920z M1723.1,961.2c12.6,3.4,25.3,6.9,37.9,10.5c-3.2,15.4-6.4,30.8-9.4,46.2l-1.1,5.6l5.5,1.6
				c18.2,5.3,36.4,10.8,54.6,16.3l9.9,3l-2-10.1c-3.2-16.2-6.4-32.3-9.5-48.5c18.9,5.7,38,11.6,57.2,17.6
				c3.8,18.5,7.6,37.1,11.4,55.6c7.7,38.3,16.3,78.1,28.3,115.3c3.2,9.8,8.2,24.5,14.8,36.8c-9.9-4-19.7-7.9-29.6-11.9
				c-0.1-0.1-0.3-0.1-0.4-0.2c-0.4-0.2-0.9-0.4-1.3-0.6c-1.6-0.7-3.3-1.5-4.9-2.2c-6.5-2.8-13-5.6-19.5-8.4
				c-9.5-4-19.3-7.5-29.3-10.3c0.1-0.1,0.1-0.1,0.2-0.2l1.9-1.9l-0.1-2.7c-0.3-8.1-1.2-16.5-2.1-24.5c-1.5-14.5-3.2-28.9-5-43.4
				l-0.5-4l-3.8-1.2c-25.7-8.1-51.4-16.2-77.2-23.7l-6.2-1.8l-1.5,6.3c-3.7,15.1-7.8,33.2-7.8,48.7c0,5.9,0.7,11.9,2.4,17.4
				c-3-0.8-5.9-1.5-8.6-2.3c-12.1-3.4-24.3-6.9-36.4-10.1c-7.4-1.9-14.8-3.9-22.3-5.8c6.8-6.6,11.4-15.9,14.6-24.5
				c4.3-11.4,7.9-23.6,11.3-35.4c6.7-23.3,12.8-46.9,18.9-70.4C1716.5,985.8,1719.8,973.5,1723.1,961.2L1723.1,961.2z"/>
		</g>
		<path class="st15" d="M969.3,1622.2l1.6-12l-42.9-5.7l-10.3,77.3l42.9,5.7l1.6-12l-30.1-4l2.8-20.6l29,3.9l1.6-12l-29-3.9
			l2.8-20.6L969.3,1622.2L969.3,1622.2z M1362.8,1568.7c-0.7-1.2-1-2.1-0.8-2.8c0.1-0.7,0.7-1.4,1.9-2l11.3-6.4c5.2-3,8.3-6,9.3-9.2
			c1-3.2,0-7.4-2.9-12.5l-7.5-13.2c-2.9-5.2-6.1-8.2-9.4-9.1c-3.3-0.9-7.6,0.1-12.7,3l-11.3,6.4c-5.2,2.9-8.2,6.1-9.1,9.4
			c-0.9,3.3,0.1,7.6,3,12.7l4.3,7.5l11.3-6.4l-4.3-7.5c-0.7-1.3-1-2.3-1-3.1c0.1-0.8,0.7-1.5,1.8-2.1l11.3-6.4
			c1.1-0.6,2-0.8,2.7-0.4c0.7,0.4,1.4,1.2,2.1,2.4l7.5,13.2c0.7,1.2,1,2.1,0.9,2.8c-0.1,0.7-0.7,1.4-1.9,2l-11.3,6.4
			c-5.2,3-8.3,6-9.3,9.2c-1,3.2,0,7.4,2.9,12.5l13.3,23.6l39.6-22.4l-6-10.6l-28.3,16L1362.8,1568.7L1362.8,1568.7z M1305.3,1599.2
			c-0.6-1.3-0.8-2.2-0.6-2.9c0.2-0.7,0.9-1.3,2-1.8l11.8-5.3c5.5-2.5,8.8-5.3,10.1-8.4c1.3-3.1,0.7-7.3-1.8-12.7l-6.2-13.8
			c-2.4-5.4-5.3-8.7-8.5-9.9c-3.2-1.2-7.6-0.6-13,1.8l-11.8,5.3c-5.4,2.4-8.7,5.3-9.9,8.5c-1.2,3.2-0.6,7.6,1.8,13l3.6,7.9l11.8-5.4
			l-3.6-7.9c-0.6-1.3-0.8-2.4-0.7-3.1c0.1-0.8,0.8-1.4,2-2l11.8-5.3c1.2-0.5,2.1-0.6,2.8-0.2c0.7,0.4,1.3,1.3,1.9,2.6l6.2,13.8
			c0.6,1.2,0.8,2.2,0.6,2.9c-0.2,0.7-0.9,1.3-2,1.8l-11.8,5.3c-5.5,2.5-8.8,5.3-10.1,8.4c-1.3,3.1-0.7,7.4,1.8,12.7l11.1,24.7
			l41.5-18.7l-5-11.1l-29.6,13.4L1305.3,1599.2L1305.3,1599.2z M1239.7,1571.8l-12.1,4.9c-5.5,2.2-8.9,4.9-10.3,8.1
			c-1.4,3.2-0.9,7.5,1.3,13l17,42.2c2.2,5.5,4.9,8.9,8.1,10.3c3.2,1.4,7.5,0.9,13-1.3l12.1-4.9c5.5-2.2,8.9-4.9,10.3-8.1
			c1.4-3.2,0.9-7.5-1.3-13l-17-42.2c-2.2-5.5-4.9-8.9-8.1-10.3C1249.5,1569.2,1245.1,1569.6,1239.7,1571.8L1239.7,1571.8z
			 M1265.7,1627.9c0.5,1.3,0.7,2.4,0.6,3.2c-0.2,0.8-0.8,1.4-2.1,1.9l-12.1,4.9c-1.2,0.5-2.1,0.5-2.8,0.1c-0.6-0.4-1.2-1.3-1.8-2.7
			l-17-42.2c-0.5-1.3-0.7-2.4-0.6-3.2c0.2-0.8,0.8-1.4,2-1.9l12.1-4.9c1.2-0.5,2.1-0.5,2.8-0.1c0.6,0.4,1.2,1.3,1.8,2.7
			L1265.7,1627.9L1265.7,1627.9z M1181.4,1643.1c-0.4-1.3-0.4-2.3-0.2-2.9c0.3-0.6,1-1.1,2.3-1.5l12.5-3.6c5.8-1.6,9.5-3.9,11.2-6.8
			c1.7-2.9,1.7-7.2,0.1-12.9l-4.2-14.6c-1.6-5.7-4-9.4-7-11.1c-3-1.7-7.4-1.7-13.1-0.1l-12.5,3.6c-5.7,1.6-9.4,4-11.1,7
			c-1.7,3-1.7,7.4-0.1,13.1l2.4,8.3l12.5-3.6l-2.4-8.3c-0.4-1.4-0.5-2.5-0.2-3.2c0.2-0.7,1-1.3,2.2-1.7l12.5-3.6
			c1.2-0.4,2.2-0.3,2.8,0.2c0.6,0.5,1.1,1.5,1.5,2.8l4.2,14.6c0.4,1.3,0.4,2.3,0.2,2.9c-0.3,0.6-1,1.1-2.3,1.5l-12.5,3.6
			c-5.8,1.6-9.5,3.9-11.2,6.8c-1.7,2.9-1.7,7.2-0.1,12.9l7.4,26l43.7-12.5l-3.3-11.7l-31.2,8.9L1181.4,1643.1L1181.4,1643.1z
			 M1105.7,1683.9l12.9-1.7l-2-15l-12.9,1.7L1105.7,1683.9L1105.7,1683.9z M1089.2,1607.7l-47.5,3.6l0.9,12.1l17.3-1.3l5,65.7l13-1
			l-5-65.7l17.3-1.3L1089.2,1607.7z M1030.8,1636.2l0.1-7.6c0.1-6.5-1.1-11-3.5-13.6c-2.5-2.6-7-3.9-13.5-4l-13-0.2
			c-6.5-0.1-11,1.1-13.6,3.5c-2.6,2.5-3.9,7-4,13.5l-0.2,10.8c-0.1,6.4,1,10.9,3.5,13.3c2.4,2.5,6.9,3.8,13.5,3.9l13,0.2
			c1.9,0,3.1,0.4,3.6,1c0.5,0.6,0.7,1.9,0.7,3.9l-0.2,10.8c0,2-0.3,3.4-0.9,4.1c-0.6,0.7-1.7,1.1-3.5,1l-13-0.2
			c-1.8,0-3-0.4-3.5-1.2c-0.5-0.7-0.8-2.1-0.7-4.1l0.1-7.6l-13-0.2l-0.1,7.6c-0.1,6.5,1.1,11,3.5,13.6c2.5,2.6,7,3.9,13.5,4l13,0.2
			c6.5,0.1,11-1.1,13.6-3.5c2.6-2.5,3.9-7,4-13.5l0.2-10.8c0.1-6.4-1-10.9-3.5-13.3c-2.4-2.5-7-3.8-13.5-3.9l-13-0.2
			c-1.9,0-3.1-0.4-3.6-1c-0.5-0.6-0.7-1.9-0.7-3.9l0.2-10.8c0-2,0.3-3.4,0.9-4.1s1.7-1.1,3.5-1l13,0.2c1.8,0,3,0.4,3.5,1.1
			c0.5,0.7,0.8,2.1,0.7,4.1l-0.1,7.6L1030.8,1636.2L1030.8,1636.2z"/>
		<path class="st15" d="M1450.4,1487c8.1,0,14.7,6.6,14.7,14.7c0,8.1-6.6,14.7-14.7,14.7c-8.1,0-14.7-6.6-14.7-14.7
			C1435.7,1493.6,1442.3,1487,1450.4,1487z M841.1,1609.4c8.1,0,14.7,6.6,14.7,14.7c0,8.1-6.6,14.7-14.7,14.7
			c-8.1,0-14.7-6.6-14.7-14.7C826.4,1616,832.9,1609.4,841.1,1609.4z"/>
		<path class="st17" d="M535.3,1347.1l-62,11.2v162.1l62-11.2c13.3-2.4,22.5-6.7,27.7-12.9c5.2-6.2,7.8-16,7.8-29.5v-90
			c0-13.5-2.6-22.4-7.8-26.7C557.8,1345.6,548.6,1344.7,535.3,1347.1L535.3,1347.1z M1571,1199.6v68.4l-44-9.4v-68.4l-26.4-5.7
			v162.1l26.4,5.7v-68.4l44,9.4v68.4l26.4,5.7v-162.1L1571,1199.6L1571,1199.6z M1476.8,1234.5v-15.8c0-13.5-2.6-23-7.9-28.5
			c-5.2-5.5-14.6-8.6-28.1-9.3l-27-1.3c-13.5-0.7-22.9,1.5-28.1,6.5c-5.2,5-7.9,14.2-7.9,27.7v22.5c0,13.4,2.6,22.7,7.8,28
			c5.2,5.3,14.6,8.3,28.2,8.9l27,1.3c3.9,0.2,6.4,1,7.4,2.3c1,1.3,1.6,4,1.6,8.1v22.5c0,4.2-0.6,7-1.7,8.5c-1.1,1.4-3.6,2.1-7.3,1.9
			l-27-1.3c-3.7-0.2-6.2-1.1-7.3-2.6c-1.1-1.6-1.7-4.4-1.7-8.6v-15.8l-27-1.3v15.8c0,13.5,2.6,23,7.9,28.5
			c5.2,5.5,14.6,8.6,28.1,9.3l27,1.3c13.5,0.7,22.9-1.5,28.1-6.5c5.2-5,7.9-14.2,7.9-27.7v-22.5c0-13.4-2.6-22.7-7.8-28
			c-5.2-5.3-14.6-8.3-28.2-8.9l-27-1.3c-3.9-0.2-6.4-1-7.4-2.3c-1-1.3-1.6-4-1.6-8.1v-22.5c0-4.2,0.6-7,1.7-8.5
			c1.1-1.4,3.6-2.1,7.3-1.9l27,1.3c3.7,0.2,6.2,1.1,7.3,2.6c1.1,1.6,1.7,4.4,1.7,8.6v15.8L1476.8,1234.5L1476.8,1234.5z
			 M1357.6,1203.6v-25.2l-90,2.2v162.1l90-2.2v-25.2l-63,1.5v-43.2l60.8-1.5v-25.2l-60.8,1.5v-43.2L1357.6,1203.6L1357.6,1203.6z
			 M1243.9,1259.4v-40.5c0-13.5-2.6-22.5-7.8-27c-5.2-4.5-14.5-5.8-27.9-3.9l-62.4,8.9v162.1l26.7-3.8v-50.4l17.6-2.5l24.1,47
			l29.6-4.2l-24.3-47.6c8.9-2.3,15.2-6.4,18.8-12.1C1242.1,1279.4,1243.9,1270.8,1243.9,1259.4L1243.9,1259.4z M1172.6,1218.2
			l35.7-5.1c3.7-0.5,6.1-0.1,7.2,1.2c1.1,1.3,1.7,4.1,1.7,8.3v40.5c0,4.1-0.5,6.8-1.6,8.2c-1,1.4-3.5,2.4-7.4,3l-35.7,5.1
			L1172.6,1218.2L1172.6,1218.2z M1062.8,1374v-68.4l59.7-11.3v-25.2l-59.7,11.3v-43.2l61.9-11.7v-25.2l-88.5,16.8v162.1
			L1062.8,1374L1062.8,1374z M922.9,1245.3l-27.9,79.5l-1.1,0.3l-27.7-63.8l-27.9,7.9l43.3,99.4v50.4l26-7.3v-50.4l43.3-123.9
			L922.9,1245.3L922.9,1245.3z M790.6,1282.8l-26,7.2V1452l86.8-24v-25.2l-60.8,16.8L790.6,1282.8L790.6,1282.8z M738.7,1297.9
			l-26.1,6.9v162.1l26.1-6.9V1297.9z M653.8,1320.2l-26.2,6.7L584,1500.1l25.9-6.7l8.7-34.7l44-11.3l8.7,30.2l25.9-6.7L653.8,1320.2
			L653.8,1320.2z M625.5,1431.9l14.6-58l1.1-0.3l14.6,50.5L625.5,1431.9L625.5,1431.9z M544.1,1471.5c0,4.2-0.6,7.2-1.7,8.9
			c-1.1,1.7-3.5,2.9-7.2,3.5l-35.4,6.4v-111.6l35.4-6.4c3.7-0.7,6.1-0.3,7.2,1c1.1,1.3,1.7,4.1,1.7,8.3V1471.5L544.1,1471.5z"/>
	</g>
</g>
</svg>
